<svg xmlns="http://www.w3.org/2000/svg" viewBox="0 0 400 400"><title>scala-icon</title><rect width="400" height="400" fill="#de3423"/><g opacity="0.5"><path d="M118.23,166.73c2.28,3.14,21.46,9,49.94,15.17,28.54,5.47,58.2,27.07,81.29,20.4C265.07,197.8,282,157.59,282,151.61V151c0-4.16-3.12-7.52-8.44-10.29-21.76-11.12-25.88-15.22-34-13C197.72,139.27,123.76,133.36,118.23,166.73Z" fill="#fff" fill-rule="evenodd"/></g><g opacity="0.5"><path d="M118.23,248.39c2.28,3.14,21.46,9,49.94,15.17,31.83,5.82,59.61,24.76,82.69,18.1,15.61-4.51,31.13-42.41,31.13-48.39v-.59c0-4.16-3.12-7.52-8.44-10.29-16.6-8.82-38.54-18.55-46.62-16.33C185.05,217.6,128.92,220.13,118.23,248.39Z" fill="#fff" fill-rule="evenodd"/></g><path d="M118,184.29v.59h.05A3.51,3.51,0,0,1,118,184.29Z" fill="#555" fill-rule="evenodd"/><path d="M250.81,85.74C212.23,96.88,151,103.22,118.05,103.22H118v62.92a1,1,0,0,0,.23.59c22.51,0,92-7.34,133.89-18.88,8.08-2.22,15.85-4.61,21.44-7.13,5.14-2.31,8.44-4.74,8.44-7.26V70C282,75.94,266.42,81.23,250.81,85.74Z" fill="#fff" fill-rule="evenodd"/><path d="M250.81,167.4c-23.08,6.67-54.25,11.61-82.63,14.51-19.06,1.95-36.87,3-50.12,3H118V247.8a1,1,0,0,0,.23.59c22.51,0,92-7.34,133.89-18.88,8.08-2.22,15.85-4.61,21.44-7.13,5.14-2.31,8.44-4.74,8.44-7.26V151.61C282,157.59,266.42,162.89,250.81,167.4Z" fill="#fff" fill-rule="evenodd"/><path d="M250.81,249.05c-23.08,6.67-54.25,11.61-82.63,14.51-19.09,1.95-36.91,3-50.17,3V330c22.27,0,92.09-7.3,134.12-18.88,15.49-4.27,29.88-9.11,29.88-14.39V233.27C282,239.25,266.42,244.54,250.81,249.05Z" fill="#fff" fill-rule="evenodd"/></svg>