<svg xmlns="http://www.w3.org/2000/svg" xmlns:xlink="http://www.w3.org/1999/xlink" version="1.1" id="Layer_1" x="0px" y="0px" viewBox="0 0 216.2 58.8" style="enable-background:new 0 0 216.2 58.8;" xml:space="preserve">
<style type="text/css">
        .st0{fill:#f08300;}
        .st1{fill:#ffffff;opacity:1.00;}
        .st3{fill:#ffffff;opacity:1.00;}
    </style>
<g>
	<g>
		<circle class="st0" cx="110.5" cy="38" r="2.9"/>
		<path class="st0" d="M176.4,31.8l-2.3-1.2l2.3-1.2c0.4-0.2,0.5-0.6,0.3-1l-0.5-0.9c-0.2-0.4-0.6-0.5-1-0.3l-2.7,1.4v-3    c0-0.4-0.3-0.7-0.7-0.7h-1.1c-0.4,0-0.7,0.3-0.7,0.7v3l-2.7-1.4c-0.4-0.2-0.8,0-1,0.3l-0.5,0.9c-0.2,0.4,0,0.8,0.3,1l2.3,1.2    l-2.3,1.2c-0.4,0.2-0.5,0.6-0.3,1l0.5,0.9c0.2,0.4,0.6,0.5,1,0.3l2.7-1.4v3c0,0.4,0.3,0.7,0.7,0.7h1.1c0.4,0,0.7-0.3,0.7-0.7v-3    l2.7,1.4c0.4,0.2,0.8,0,1-0.3l0.5-0.9C176.9,32.4,176.7,32,176.4,31.8z"/>
		<path class="st0" d="M13.8,5.5h1.9c2.1,0,4,1,5.6,3c0.3,0.5,1,0.5,1.5,0.3L24.3,8c0.4-0.2,0.6-0.5,0.7-0.8c0.1-0.3,0-0.7-0.2-1    c-0.6-1-1.5-1.8-2.4-2.4c-1.8-1.3-4.1-2-6.8-2h-1.9c-6.4,0-10.6,4-10.6,10.1v19.6c0,6.1,4.3,10.1,10.6,10.1h1.9    c2.9,0,5.3-0.7,7.1-2.2c0.8-0.6,1.5-1.4,2.1-2.3c0.2-0.3,0.3-0.6,0.2-1c-0.1-0.4-0.4-0.7-0.8-0.9l-1.5-0.7    c-0.6-0.3-1.1-0.2-1.5,0.3c-1.4,2-3.3,3-5.5,3h-1.9c-3.5,0-6.3-2.8-6.3-6.4V11.8C7.5,8.2,10.1,5.5,13.8,5.5z"/>
		<path class="st1" d="M151.3,8.7h-1.8c-0.8,0-1.3,0.5-1.3,1.3v29.7c0,0.8,0.5,1.3,1.3,1.3h1.8c0.8,0,1.3-0.5,1.3-1.3V9.9    C152.6,9.1,152.1,8.7,151.3,8.7z"/>
		<path class="st1" d="M161.1,4.8V3.7c0-0.8-0.5-1.3-1.3-1.3h-19c-0.8,0-1.3,0.5-1.3,1.3v1.1c0,0.8,0.5,1.3,1.3,1.3h19    C160.7,6.1,161.1,5.6,161.1,4.8z"/>
		<path class="st0" d="M91.3,19.5c-0.8,0-1.3,0.5-1.3,1.3v1.1c0,0.8,0.5,1.3,1.3,1.3h9c0.8,0,1.3-0.5,1.3-1.3v-1.1    c0-0.8-0.5-1.3-1.3-1.3H91.3z"/>
		<path class="st1" d="M128.4,19.3l-1.2-0.5c-3.1-1.5-6.6-3.1-6.6-6.9c0-3.8,2.4-6.3,6.2-6.3h0.9c2.1,0,4.2,1.1,5.6,3    c0.3,0.5,0.9,0.6,1.6,0.3l1.5-0.8c0.4-0.2,0.6-0.5,0.7-0.8c0.1-0.2,0.1-0.6-0.2-1c-0.8-1.1-1.8-2.1-2.8-2.7    c-1.7-1.1-3.9-1.7-6.3-1.7h-0.9c-6.3,0-10.6,4-10.6,10.1c0,6.8,4.8,9,9.9,11.4l0.6,0.3c3.7,1.7,7.5,3.5,7.5,7.9    c0,3.7-2.7,6.4-6.4,6.4h-2.5c-2.1,0-4-1-5.6-3c-0.4-0.5-0.9-0.6-1.5-0.4l-1.6,0.9c-0.4,0.2-0.6,0.5-0.7,0.9c-0.1,0.4,0,0.7,0.2,1    c0.7,1,1.7,1.9,2.7,2.6c1.8,1.2,4,1.8,6.4,1.8h2.5c6.5,0,10.9-4.1,10.9-10.1C138.6,24.1,133.9,21.9,128.4,19.3z"/>
		<path class="st0" d="M69.2,2.4H57.9c-0.8,0-1.3,0.5-1.3,1.3v36c0,0.8,0.5,1.3,1.3,1.3h11.2c6.6,0,10.8-4.2,10.8-10.8V13    C80,6.6,75.7,2.4,69.2,2.4z M75.6,30.8c0,3.7-2.8,6.4-6.4,6.4h-7.3c-0.5,0-0.8-0.3-0.8-0.8V6.9c0-0.5,0.3-0.8,0.8-0.8h7.3    c3.6,0,6.4,2.8,6.4,6.3V30.8z"/>
		<path class="st0" d="M88.2,6.1h15c0.8,0,1.3-0.5,1.3-1.3V3.7c0-0.8-0.5-1.3-1.3-1.3H84.3c-0.8,0-1.3,0.5-1.3,1.3v36    c0,0.8,0.5,1.3,1.3,1.3h18.9c0.8,0,1.3-0.5,1.3-1.3v-1.2c0-0.8-0.5-1.3-1.3-1.3h-15c-0.5,0-0.8-0.3-0.8-0.8V6.9    C87.4,6.4,87.7,6.1,88.2,6.1z"/>
		<path class="st1" d="M213.3,13.6v-1c0-6.3-4.2-10.1-10.8-10.1h-11.2c-0.8,0-1.3,0.5-1.3,1.3v36c0,0.8,0.5,1.3,1.3,1.3h1.8    c0.8,0,1.3-0.5,1.3-1.3V6.9c0-0.5,0.3-0.8,0.8-0.8h7.3c3.8,0,6.4,2.5,6.4,6.3V13c0,3.7-2.8,6.6-6.4,6.6h-4.2    c-0.8,0-1.3,0.5-1.3,1.3v1.1c0,1.3,1.3,1.3,1.3,1.3h4.5l5.8,16.8c0.1,0.5,0.6,0.9,1.2,0.9h2.1c0.6,0,1-0.3,1.1-0.5    c0.1-0.2,0.3-0.6,0.1-1.2l-5.9-17.1C210.7,20.7,213.3,17.2,213.3,13.6z"/>
		<g>
			<path class="st1" d="M186.9,39.3L186.9,39.3l-13.6-36c-0.2-0.6-0.6-0.9-1.2-0.9h-1.5c-0.6,0-1,0.4-1.2,0.9l-13.6,36l0,0     c-0.1,0.6,0,0.9,0.2,1.1c0.2,0.2,0.5,0.5,1.1,0.5h1.9c0.6,0,1-0.4,1.2-0.9c0,0,0-0.1,0.1-0.1c0.9-2.2,10.4-27.5,10.5-27.8     c0.1-0.4,0.3-0.5,0.6-0.5s0.5,0.1,0.7,0.5c0.2,0.4,10.2,27.1,10.5,28c0.2,0.6,0.6,0.9,1.2,0.9h2c0.6,0,0.9-0.2,1.1-0.5     C186.9,40.2,187,39.8,186.9,39.3z"/>
		</g>
		<g>
			<path class="st0" d="M38.2,1.8L38.2,1.8c-6.4,0-10.7,4-10.7,10.1v8l-1.2,1.5l1.2,1.5v8.5c0,6.1,4.3,10.1,10.7,10.1     c0.6,0,1-0.4,1-1.1v-1.6c0-0.6-0.4-1.1-1-1.1h-0.1c-3.4,0-6.3-3-6.3-6.4v-8.8l-1-1.2l1-1.2v-8.3c0-3.5,2.8-6.3,6.4-6.3     c0,0,0,0,0,0c0,0,1,0,1-1.1V2.8C39.2,2.2,38.8,1.8,38.2,1.8z"/>
			<path class="st0" d="M53.6,19.8v-8c0-6-4.3-10.1-10.7-10.1h0c-0.6,0-1,0.5-1,1.1v1.6c0,1.1,1,1.1,1,1.1c0,0,0,0,0,0     c3.6,0,6.4,2.8,6.4,6.3v8.3l1,1.2l-1,1.2v8.8c0,3.4-2.9,6.4-6.3,6.4h-0.1c-0.6,0-1,0.5-1,1.1v1.6c0,0.6,0.4,1.1,1,1.1     c6.4,0,10.7-4.1,10.7-10.1v-8.5l1.2-1.5L53.6,19.8z"/>
		</g>
	</g>
	<g>
		<g>
			<path class="st3" d="M35.1,55h-1.1C34,55,34,55,34,55v2.2c0,0.1,0,0.1-0.1,0.1h-0.4c-0.1,0-0.1,0-0.1-0.1v-5c0-0.1,0-0.1,0.1-0.1     h1.6c0.9,0,1.4,0.6,1.4,1.4C36.6,54.4,36,55,35.1,55z M36,53.5c0-0.5-0.4-0.9-0.9-0.9h-1.1c-0.1,0-0.1,0-0.1,0.1v1.7     c0,0.1,0,0.1,0.1,0.1h1.1C35.6,54.5,36,54.1,36,53.5L36,53.5z"/>
			<path class="st3" d="M40,57.4h-0.4c0,0-0.1,0-0.1-0.1l-0.3-1.1c0,0,0,0-0.1,0h-1.6c0,0-0.1,0-0.1,0l-0.3,1.1c0,0,0,0.1-0.1,0.1     h-0.4c-0.1,0-0.1,0-0.1-0.1c0,0,0-0.1,0.1-0.2l1.5-4.9c0,0,0-0.1,0.1-0.1h0.3c0,0,0.1,0,0.1,0.1L40,57C40,57.2,40.1,57.3,40,57.4     C40.1,57.3,40,57.4,40,57.4z M38.4,53.4c0,0-0.1-0.3-0.1-0.3h0c0,0.1-0.1,0.3-0.1,0.3l-0.6,2.2c0,0,0,0.1,0.1,0.1h1.2     c0.1,0,0.1,0,0.1-0.1L38.4,53.4z"/>
			<path class="st3" d="M42.2,57.4h-0.4c-0.6,0-0.9-0.2-1.1-0.4c-0.1-0.1-0.2-0.2-0.2-0.3c0,0,0,0,0-0.1l0.3-0.2c0,0,0,0,0.1,0     c0,0,0,0,0.1,0c0.2,0.3,0.5,0.5,0.8,0.5h0.4c0.5,0,0.9-0.4,0.9-0.9c0-0.6-0.5-0.8-1.1-1.1c-0.6-0.3-1.4-0.6-1.4-1.6     c0-0.8,0.6-1.4,1.4-1.4h0.1c0.6,0,0.9,0.2,1.1,0.4c0.1,0.1,0.2,0.2,0.2,0.3c0,0,0,0.1-0.1,0.1L43.2,53c0,0-0.1,0-0.1,0     c0,0,0,0-0.1,0c-0.2-0.3-0.5-0.5-0.8-0.5h-0.1c-0.5,0-0.9,0.4-0.9,0.9c0,0.5,0.6,0.8,1.2,1.1c0.6,0.3,1.3,0.6,1.3,1.6     C43.7,56.9,43.1,57.4,42.2,57.4z"/>
			<path class="st3" d="M46.1,57.4h-0.4c-0.6,0-0.9-0.2-1.1-0.4c-0.1-0.1-0.2-0.2-0.2-0.3c0,0,0,0,0-0.1l0.3-0.2c0,0,0,0,0.1,0     c0,0,0,0,0.1,0c0.2,0.3,0.5,0.5,0.8,0.5h0.4c0.5,0,0.9-0.4,0.9-0.9c0-0.6-0.5-0.8-1.1-1.1c-0.6-0.3-1.4-0.6-1.4-1.6     c0-0.8,0.6-1.4,1.4-1.4h0.1c0.6,0,0.9,0.2,1.1,0.4c0.1,0.1,0.2,0.2,0.2,0.3c0,0,0,0.1-0.1,0.1L47,53c0,0-0.1,0-0.1,0     c0,0,0,0-0.1,0c-0.2-0.3-0.5-0.5-0.8-0.5h-0.1c-0.5,0-0.9,0.4-0.9,0.9c0,0.5,0.6,0.8,1.2,1.1c0.6,0.3,1.3,0.6,1.3,1.6     C47.5,56.9,47,57.4,46.1,57.4z"/>
			<path class="st3" d="M48.9,57.4h-0.4c-0.1,0-0.1,0-0.1-0.1v-5c0-0.1,0-0.1,0.1-0.1h0.4c0.1,0,0.1,0,0.1,0.1L48.9,57.4     C49,57.3,49,57.4,48.9,57.4z"/>
			<path class="st3" d="M51.7,57.4h-0.3c-0.9,0-1.4-0.6-1.4-1.4v-2.7c0-0.8,0.6-1.4,1.4-1.4h0.3c0.9,0,1.4,0.6,1.4,1.4v2.7     C53.2,56.9,52.6,57.4,51.7,57.4z M52.6,53.4c0-0.5-0.4-0.9-0.9-0.9h-0.3c-0.5,0-0.9,0.4-0.9,0.9v2.7c0,0.5,0.4,0.9,0.9,0.9h0.3     c0.5,0,0.9-0.4,0.9-0.9V53.4z"/>
			<path class="st3" d="M57.4,57.4H57c0,0-0.1,0-0.1,0l-2-3.6c0-0.1-0.1-0.2-0.1-0.3l0,0c0,0.2,0,1.3,0,1.9v2c0,0.1,0,0.1-0.1,0.1     h-0.4c-0.1,0-0.1,0-0.1-0.1v-5c0-0.1,0-0.1,0.1-0.1h0.4c0,0,0.1,0,0.1,0l2,3.7c0,0,0.1,0.2,0.1,0.3l0,0c0-0.2,0-1.3,0-1.9v-2     c0-0.1,0-0.1,0.1-0.1h0.4c0.1,0,0.1,0,0.1,0.1L57.4,57.4C57.4,57.3,57.4,57.4,57.4,57.4z"/>
			<path class="st3" d="M61.6,57.4h-0.4c0,0-0.1,0-0.1-0.1l-0.3-1.1c0,0,0,0-0.1,0h-1.6c0,0-0.1,0-0.1,0l-0.3,1.1c0,0,0,0.1-0.1,0.1     h-0.4c-0.1,0-0.1,0-0.1-0.1c0,0,0-0.1,0.1-0.2l1.5-4.9c0,0,0-0.1,0.1-0.1h0.3c0,0,0.1,0,0.1,0.1l1.5,4.8     C61.7,57.2,61.7,57.3,61.6,57.4C61.7,57.3,61.7,57.4,61.6,57.4z M60.1,53.4c0,0-0.1-0.3-0.1-0.3h0c0,0.1-0.1,0.3-0.1,0.3     l-0.6,2.2c0,0,0,0.1,0.1,0.1h1.2c0.1,0,0.1,0,0.1-0.1L60.1,53.4z"/>
			<path class="st3" d="M64.4,52.6h-1c-0.1,0-0.1,0-0.1,0.1v4.6c0,0.1,0,0.1-0.1,0.1h-0.4c-0.1,0-0.1,0-0.1-0.1v-4.6     c0-0.1,0-0.1-0.1-0.1h-1c-0.1,0-0.1,0-0.1-0.1v-0.3c0-0.1,0-0.1,0.1-0.1h2.7c0.1,0,0.1,0,0.1,0.1L64.4,52.6     C64.5,52.6,64.5,52.6,64.4,52.6z"/>
			<path class="st3" d="M68.2,57.4h-2.7c-0.1,0-0.1,0-0.1-0.1v-5c0-0.1,0-0.1,0.1-0.1h2.7c0.1,0,0.1,0,0.1,0.1v0.3     c0,0.1,0,0.1-0.1,0.1H66c-0.1,0-0.1,0-0.1,0.1v1.7c0,0.1,0,0.1,0.1,0.1h1.8c0.1,0,0.1,0,0.1,0.1v0.3c0,0.1,0,0.1-0.1,0.1H66     c-0.1,0-0.1,0-0.1,0.1v1.8c0,0.1,0,0.1,0.1,0.1h2.2c0.1,0,0.1,0,0.1,0.1L68.2,57.4C68.3,57.3,68.2,57.4,68.2,57.4z"/>
			<path class="st3" d="M72.5,55h-1.1c-0.1,0-0.1,0-0.1,0.1v2.2c0,0.1,0,0.1-0.1,0.1h-0.4c-0.1,0-0.1,0-0.1-0.1v-5     c0-0.1,0-0.1,0.1-0.1h1.6c0.9,0,1.4,0.6,1.4,1.4C73.9,54.4,73.3,55,72.5,55z M73.4,53.5c0-0.5-0.4-0.9-0.9-0.9h-1.1     c-0.1,0-0.1,0-0.1,0.1v1.7c0,0.1,0,0.1,0.1,0.1h1.1C73,54.5,73.4,54.1,73.4,53.5L73.4,53.5z"/>
			<path class="st3" d="M77.8,57.4h-0.4c0,0-0.1,0-0.1-0.1L76.4,55c0,0,0,0-0.1,0h-1c-0.1,0-0.1,0-0.1,0.1v2.2c0,0.1,0,0.1-0.1,0.1     h-0.4c-0.1,0-0.1,0-0.1-0.1v-5c0-0.1,0-0.1,0.1-0.1h1.6c0.9,0,1.4,0.6,1.4,1.4v0.1c0,0.4-0.4,0.9-0.8,1.1c0,0,0,0,0,0.1     s0,0.1,0,0.1l0.7,2.2C77.8,57.2,77.8,57.3,77.8,57.4C77.8,57.3,77.8,57.4,77.8,57.4z M77.3,53.5c0-0.5-0.4-0.9-0.9-0.9h-1.1     c-0.1,0-0.1,0-0.1,0.1v1.7c0,0.1,0,0.1,0.1,0.1h1.1C76.9,54.5,77.3,54.1,77.3,53.5L77.3,53.5z"/>
			<path class="st3" d="M80.4,57.4h-0.3c-0.9,0-1.4-0.6-1.4-1.4v-2.7c0-0.8,0.6-1.4,1.4-1.4h0.3c0.9,0,1.4,0.6,1.4,1.4v2.7     C81.8,56.9,81.2,57.4,80.4,57.4z M81.2,53.4c0-0.5-0.4-0.9-0.9-0.9h-0.3c-0.5,0-0.9,0.4-0.9,0.9v2.7c0,0.5,0.4,0.9,0.9,0.9h0.3     c0.5,0,0.9-0.4,0.9-0.9V53.4z"/>
			<path class="st3" d="M84.6,57.4h-0.3c-0.9,0-1.4-0.6-1.4-1.4v-2.7c0-0.8,0.6-1.4,1.4-1.4h0.4c0.6,0,0.9,0.2,1.1,0.4     c0.1,0.1,0.2,0.2,0.2,0.3c0,0,0,0.1-0.1,0.1L85.7,53c0,0-0.1,0-0.1,0c0,0,0,0-0.1,0c-0.2-0.3-0.5-0.5-0.8-0.5h-0.4     c-0.5,0-0.9,0.4-0.9,0.9v2.7c0,0.5,0.4,0.9,0.9,0.9h0.3c0.5,0,0.9-0.4,0.9-0.9v-0.7c0-0.1,0-0.1-0.1-0.1h-0.9     c-0.1,0-0.1,0-0.1-0.1v-0.3c0-0.1,0-0.1,0.1-0.1h1.4c0.1,0,0.1,0,0.1,0.1v1.1C86,56.9,85.5,57.4,84.6,57.4z"/>
			<path class="st3" d="M90,57.4h-0.4c0,0-0.1,0-0.1-0.1L88.7,55c0,0,0,0-0.1,0h-1c-0.1,0-0.1,0-0.1,0.1v2.2c0,0.1,0,0.1-0.1,0.1H87     c-0.1,0-0.1,0-0.1-0.1v-5c0-0.1,0-0.1,0.1-0.1h1.6c0.9,0,1.4,0.6,1.4,1.4v0.1c0,0.4-0.4,0.9-0.8,1.1c0,0,0,0,0,0.1s0,0.1,0,0.1     l0.7,2.2C90.1,57.2,90.1,57.3,90,57.4C90.1,57.3,90.1,57.4,90,57.4z M89.5,53.5c0-0.5-0.4-0.9-0.9-0.9h-1.1c-0.1,0-0.1,0-0.1,0.1     v1.7c0,0.1,0,0.1,0.1,0.1h1.1C89.2,54.5,89.5,54.1,89.5,53.5L89.5,53.5z"/>
			<path class="st3" d="M94.1,57.4h-0.4c0,0-0.1,0-0.1-0.1l-0.3-1.1c0,0,0,0-0.1,0h-1.6c0,0-0.1,0-0.1,0l-0.3,1.1c0,0,0,0.1-0.1,0.1     h-0.4c-0.1,0-0.1,0-0.1-0.1c0,0,0-0.1,0.1-0.2l1.5-4.9c0,0,0-0.1,0.1-0.1h0.3c0,0,0.1,0,0.1,0.1l1.5,4.8     C94.1,57.2,94.1,57.3,94.1,57.4C94.1,57.3,94.1,57.4,94.1,57.4z M92.5,53.4c0,0-0.1-0.3-0.1-0.3h0c0,0.1-0.1,0.3-0.1,0.3     l-0.6,2.2c0,0,0,0.1,0.1,0.1H93c0.1,0,0.1,0,0.1-0.1L92.5,53.4z"/>
			<path class="st3" d="M98.9,57.4h-0.4c-0.1,0-0.1,0-0.1-0.1v-2c0-0.7,0.1-1.7,0.1-1.9l0,0c0,0.1-0.2,0.5-0.2,0.6l-1.1,2.6     c0,0,0,0-0.1,0h-0.2c0,0-0.1,0-0.1,0L95.6,54c0-0.1-0.2-0.5-0.2-0.6l0,0c0,0.2,0.1,1.3,0.1,1.9v2c0,0.1,0,0.1-0.1,0.1H95     c-0.1,0-0.1,0-0.1-0.1v-5c0-0.1,0-0.1,0.1-0.1h0.4c0,0,0.1,0,0.1,0l1.4,3.1c0,0.1,0.1,0.3,0.1,0.3h0c0-0.1,0.1-0.3,0.1-0.3     l1.3-3.2c0,0,0,0,0.1,0h0.4c0.1,0,0.1,0,0.1,0.1L98.9,57.4C99,57.3,98.9,57.4,98.9,57.4z"/>
			<path class="st3" d="M104.3,57.4h-0.4c-0.1,0-0.1,0-0.1-0.1v-2c0-0.7,0.1-1.7,0.1-1.9l0,0c0,0.1-0.2,0.5-0.2,0.6l-1.1,2.6     c0,0,0,0-0.1,0h-0.2c0,0-0.1,0-0.1,0L101,54c0-0.1-0.2-0.5-0.2-0.6l0,0c0,0.2,0.1,1.3,0.1,1.9v2c0,0.1,0,0.1-0.1,0.1h-0.4     c-0.1,0-0.1,0-0.1-0.1v-5c0-0.1,0-0.1,0.1-0.1h0.4c0,0,0.1,0,0.1,0l1.4,3.1c0,0.1,0.1,0.3,0.1,0.3h0c0-0.1,0.1-0.3,0.1-0.3     l1.3-3.2c0,0,0,0,0.1,0h0.4c0.1,0,0.1,0,0.1,0.1L104.3,57.4C104.4,57.3,104.3,57.4,104.3,57.4z"/>
			<path class="st3" d="M108.5,57.4h-2.7c-0.1,0-0.1,0-0.1-0.1v-5c0-0.1,0-0.1,0.1-0.1h2.7c0.1,0,0.1,0,0.1,0.1v0.3     c0,0.1,0,0.1-0.1,0.1h-2.2c-0.1,0-0.1,0-0.1,0.1v1.7c0,0.1,0,0.1,0.1,0.1h1.8c0.1,0,0.1,0,0.1,0.1v0.3c0,0.1,0,0.1-0.1,0.1h-1.8     c-0.1,0-0.1,0-0.1,0.1v1.8c0,0.1,0,0.1,0.1,0.1h2.2c0.1,0,0.1,0,0.1,0.1L108.5,57.4C108.6,57.3,108.6,57.4,108.5,57.4z"/>
			<path class="st3" d="M112.7,57.4h-0.4c0,0-0.1,0-0.1-0.1l-0.8-2.3c0,0,0,0-0.1,0h-1c-0.1,0-0.1,0-0.1,0.1v2.2     c0,0.1,0,0.1-0.1,0.1h-0.4c-0.1,0-0.1,0-0.1-0.1v-5c0-0.1,0-0.1,0.1-0.1h1.6c0.9,0,1.4,0.6,1.4,1.4v0.1c0,0.4-0.4,0.9-0.8,1.1     c0,0,0,0,0,0.1s0,0.1,0,0.1l0.7,2.2C112.8,57.2,112.8,57.3,112.7,57.4C112.8,57.3,112.8,57.4,112.7,57.4z M112.3,53.5     c0-0.5-0.4-0.9-0.9-0.9h-1.1c-0.1,0-0.1,0-0.1,0.1v1.7c0,0.1,0,0.1,0.1,0.1h1.1C111.9,54.5,112.3,54.1,112.3,53.5L112.3,53.5z"/>
			<path class="st3" d="M115.2,57.4h-0.4c-0.6,0-0.9-0.2-1.1-0.4c-0.1-0.1-0.2-0.2-0.2-0.3c0,0,0,0,0-0.1l0.3-0.2c0,0,0,0,0.1,0     c0,0,0,0,0.1,0c0.2,0.3,0.5,0.5,0.8,0.5h0.4c0.5,0,0.9-0.4,0.9-0.9c0-0.6-0.5-0.8-1.1-1.1c-0.6-0.3-1.4-0.6-1.4-1.6     c0-0.8,0.6-1.4,1.4-1.4h0.1c0.6,0,0.9,0.2,1.1,0.4c0.1,0.1,0.2,0.2,0.2,0.3c0,0,0,0.1-0.1,0.1l-0.3,0.1c0,0-0.1,0-0.1,0     c0,0,0,0-0.1,0c-0.2-0.3-0.5-0.5-0.8-0.5h-0.1c-0.5,0-0.9,0.4-0.9,0.9c0,0.5,0.6,0.8,1.2,1.1c0.6,0.3,1.3,0.6,1.3,1.6     C116.7,56.9,116.1,57.4,115.2,57.4z"/>
			<path class="st3" d="M117.8,57.5c-0.2,0-0.4-0.2-0.4-0.4s0.2-0.4,0.4-0.4c0.2,0,0.4,0.2,0.4,0.4     C118.2,57.3,118.1,57.5,117.8,57.5z"/>
			<path class="st3" d="M122.5,55h-1.1c-0.1,0-0.1,0-0.1,0.1v2.2c0,0.1,0,0.1-0.1,0.1h-0.4c-0.1,0-0.1,0-0.1-0.1v-5     c0-0.1,0-0.1,0.1-0.1h1.6c0.9,0,1.4,0.6,1.4,1.4C124,54.4,123.4,55,122.5,55z M123.4,53.5c0-0.5-0.4-0.9-0.9-0.9h-1.1     c-0.1,0-0.1,0-0.1,0.1v1.7c0,0.1,0,0.1,0.1,0.1h1.1C123,54.5,123.4,54.1,123.4,53.5L123.4,53.5z"/>
			<path class="st3" d="M126.4,57.4h-0.3c-0.9,0-1.4-0.6-1.4-1.4v-2.7c0-0.8,0.6-1.4,1.4-1.4h0.3c0.9,0,1.4,0.6,1.4,1.4v2.7     C127.8,56.9,127.3,57.4,126.4,57.4z M127.3,53.4c0-0.5-0.4-0.9-0.9-0.9h-0.3c-0.5,0-0.9,0.4-0.9,0.9v2.7c0,0.5,0.4,0.9,0.9,0.9     h0.3c0.5,0,0.9-0.4,0.9-0.9V53.4z"/>
			<path class="st3" d="M133.7,52.5l-1,4.8c0,0,0,0.1-0.1,0.1h-0.3c0,0-0.1,0-0.1-0.1l-1-3.3c0,0-0.1-0.3-0.1-0.4h0     c0,0.1-0.1,0.3-0.1,0.4l-1,3.3c0,0,0,0.1-0.1,0.1h-0.3c0,0-0.1,0-0.1-0.1l-1.1-4.9c0-0.1,0-0.1,0-0.2c0,0,0-0.1,0.1-0.1h0.4     c0,0,0.1,0,0.1,0.1l0.7,3.5c0,0.1,0.1,0.3,0.1,0.4h0c0-0.1,0.1-0.3,0.1-0.4l1-3.6c0,0,0-0.1,0.1-0.1h0.1c0,0,0.1,0,0.1,0.1l1,3.6     c0,0.1,0.1,0.3,0.1,0.4h0c0-0.1,0.1-0.3,0.1-0.4l0.7-3.6c0,0,0-0.1,0.1-0.1h0.4c0.1,0,0.1,0,0.1,0.1     C133.7,52.3,133.7,52.4,133.7,52.5z"/>
			<path class="st3" d="M137.4,57.4h-2.7c-0.1,0-0.1,0-0.1-0.1v-5c0-0.1,0-0.1,0.1-0.1h2.7c0.1,0,0.1,0,0.1,0.1v0.3     c0,0.1,0,0.1-0.1,0.1h-2.2c-0.1,0-0.1,0-0.1,0.1v1.7c0,0.1,0,0.1,0.1,0.1h1.8c0.1,0,0.1,0,0.1,0.1v0.3c0,0.1,0,0.1-0.1,0.1h-1.8     c-0.1,0-0.1,0-0.1,0.1v1.8c0,0.1,0,0.1,0.1,0.1h2.2c0.1,0,0.1,0,0.1,0.1L137.4,57.4C137.4,57.3,137.4,57.4,137.4,57.4z"/>
			<path class="st3" d="M141.6,57.4h-0.4c0,0-0.1,0-0.1-0.1l-0.8-2.3c0,0,0,0-0.1,0h-1c-0.1,0-0.1,0-0.1,0.1v2.2     c0,0.1,0,0.1-0.1,0.1h-0.4c-0.1,0-0.1,0-0.1-0.1v-5c0-0.1,0-0.1,0.1-0.1h1.6c0.9,0,1.4,0.6,1.4,1.4v0.1c0,0.4-0.4,0.9-0.8,1.1     c0,0,0,0,0,0.1s0,0.1,0,0.1l0.7,2.2C141.6,57.2,141.7,57.3,141.6,57.4C141.7,57.3,141.6,57.4,141.6,57.4z M141.1,53.5     c0-0.5-0.4-0.9-0.9-0.9h-1.1c-0.1,0-0.1,0-0.1,0.1v1.7c0,0.1,0,0.1,0.1,0.1h1.1C140.7,54.5,141.1,54.1,141.1,53.5L141.1,53.5z"/>
			<path class="st3" d="M145.5,57.4h-2.7c-0.1,0-0.1,0-0.1-0.1v-5c0-0.1,0-0.1,0.1-0.1h2.7c0.1,0,0.1,0,0.1,0.1v0.3     c0,0.1,0,0.1-0.1,0.1h-2.2c-0.1,0-0.1,0-0.1,0.1v1.7c0,0.1,0,0.1,0.1,0.1h1.8c0.1,0,0.1,0,0.1,0.1v0.3c0,0.1,0,0.1-0.1,0.1h-1.8     c-0.1,0-0.1,0-0.1,0.1v1.8c0,0.1,0,0.1,0.1,0.1h2.2c0.1,0,0.1,0,0.1,0.1L145.5,57.4C145.6,57.3,145.6,57.4,145.5,57.4z"/>
			<path class="st3" d="M148.4,57.4h-1.6c-0.1,0-0.1,0-0.1-0.1v-5c0-0.1,0-0.1,0.1-0.1h1.6c0.9,0,1.4,0.6,1.4,1.4v2.3     C149.9,56.8,149.3,57.4,148.4,57.4z M149.3,53.5c0-0.5-0.4-0.9-0.9-0.9h-1.1c-0.1,0-0.1,0-0.1,0.1v4.1c0,0.1,0,0.1,0.1,0.1h1.1     c0.5,0,0.9-0.4,0.9-0.9V53.5z"/>
			<path class="st3" d="M154.2,57.4h-1.6c-0.1,0-0.1,0-0.1-0.1v-5c0-0.1,0-0.1,0.1-0.1h1.6c0.9,0,1.4,0.6,1.4,1.4v0.1     c0,0.3-0.3,0.8-0.6,1c0,0-0.1,0-0.1,0.1c0,0,0,0,0,0.1c0.3,0.1,0.6,0.5,0.6,1v0.1C155.7,56.8,155.1,57.4,154.2,57.4z M155.1,53.5     c0-0.5-0.4-0.9-0.9-0.9h-1.1c-0.1,0-0.1,0-0.1,0.1v1.7c0,0.1,0,0.1,0.1,0.1h1.1C154.7,54.5,155.1,54.1,155.1,53.5L155.1,53.5z      M155.1,55.8c0-0.5-0.4-0.9-0.9-0.9h-1.1c-0.1,0-0.1,0-0.1,0.1v1.8c0,0.1,0,0.1,0.1,0.1h1.1c0.5,0,0.9-0.4,0.9-0.9V55.8z"/>
			<path class="st3" d="M159.4,52.6l-1.3,2.4v2.3c0,0.1,0,0.1-0.1,0.1h-0.4c-0.1,0-0.1,0-0.1-0.1V55l-1.3-2.4     c-0.1-0.1-0.1-0.3-0.1-0.3c0,0,0-0.1,0.1-0.1h0.5c0,0,0.1,0,0.1,0l1,2.1c0,0,0,0.1,0.1,0.1s0.1,0,0.1-0.1l1-2.1c0,0,0,0,0.1,0     h0.5c0.1,0,0.1,0,0.1,0.1C159.5,52.3,159.5,52.4,159.4,52.6z"/>
			<path class="st3" d="M163.3,57.4h-0.3c-0.9,0-1.4-0.6-1.4-1.4v-2.7c0-0.8,0.6-1.4,1.4-1.4h0.3c0.9,0,1.4,0.6,1.4,1.4v2.7     C164.8,56.9,164.2,57.4,163.3,57.4z M164.2,53.4c0-0.5-0.4-0.9-0.9-0.9h-0.3c-0.5,0-0.9,0.4-0.9,0.9v2.7c0,0.5,0.4,0.9,0.9,0.9     h0.3c0.5,0,0.9-0.4,0.9-0.9V53.4z"/>
			<path class="st3" d="M168.9,57.4h-0.4c0,0-0.1,0-0.1-0.1l-0.8-2.3c0,0,0,0-0.1,0h-1c-0.1,0-0.1,0-0.1,0.1v2.2     c0,0.1,0,0.1-0.1,0.1h-0.4c-0.1,0-0.1,0-0.1-0.1v-5c0-0.1,0-0.1,0.1-0.1h1.6c0.9,0,1.4,0.6,1.4,1.4v0.1c0,0.4-0.4,0.9-0.8,1.1     c0,0,0,0,0,0.1s0,0.1,0,0.1l0.7,2.2C168.9,57.2,168.9,57.3,168.9,57.4C168.9,57.3,168.9,57.4,168.9,57.4z M168.4,53.5     c0-0.5-0.4-0.9-0.9-0.9h-1.1c-0.1,0-0.1,0-0.1,0.1v1.7c0,0.1,0,0.1,0.1,0.1h1.1C168,54.5,168.4,54.1,168.4,53.5L168.4,53.5z"/>
			<path class="st3" d="M171.7,57.4h-1.6c-0.1,0-0.1,0-0.1-0.1v-5c0-0.1,0-0.1,0.1-0.1h1.6c0.9,0,1.4,0.6,1.4,1.4v2.3     C173.2,56.8,172.6,57.4,171.7,57.4z M172.6,53.5c0-0.5-0.4-0.9-0.9-0.9h-1.1c-0.1,0-0.1,0-0.1,0.1v4.1c0,0.1,0,0.1,0.1,0.1h1.1     c0.5,0,0.9-0.4,0.9-0.9V53.5z"/>
			<path class="st3" d="M174.6,57.4h-0.4c-0.1,0-0.1,0-0.1-0.1v-5c0-0.1,0-0.1,0.1-0.1h0.4c0.1,0,0.1,0,0.1,0.1L174.6,57.4     C174.7,57.3,174.7,57.4,174.6,57.4z"/>
			<path class="st3" d="M179,57.4h-0.4c0,0-0.1,0-0.1,0l-2-3.6c0-0.1-0.1-0.2-0.1-0.3l0,0c0,0.2,0,1.3,0,1.9v2c0,0.1,0,0.1-0.1,0.1     h-0.4c-0.1,0-0.1,0-0.1-0.1v-5c0-0.1,0-0.1,0.1-0.1h0.4c0,0,0.1,0,0.1,0l2,3.7c0,0,0.1,0.2,0.1,0.3l0,0c0-0.2,0-1.3,0-1.9v-2     c0-0.1,0-0.1,0.1-0.1h0.4c0.1,0,0.1,0,0.1,0.1L179,57.4C179.1,57.3,179.1,57.4,179,57.4z"/>
			<path class="st3" d="M183.3,57.4h-0.4c0,0-0.1,0-0.1-0.1l-0.3-1.1c0,0,0,0-0.1,0h-1.6c0,0-0.1,0-0.1,0l-0.3,1.1     c0,0,0,0.1-0.1,0.1h-0.4c-0.1,0-0.1,0-0.1-0.1c0,0,0-0.1,0.1-0.2l1.5-4.9c0,0,0-0.1,0.1-0.1h0.3c0,0,0.1,0,0.1,0.1l1.5,4.8     C183.4,57.2,183.4,57.3,183.3,57.4C183.4,57.3,183.4,57.4,183.3,57.4z M181.7,53.4c0,0-0.1-0.3-0.1-0.3h0c0,0.1-0.1,0.3-0.1,0.3     l-0.6,2.2c0,0,0,0.1,0.1,0.1h1.2c0.1,0,0.1,0,0.1-0.1L181.7,53.4z"/>
		</g>
	</g>
</g>
</svg>