<svg id="Layer_1" data-name="Layer 1" xmlns="http://www.w3.org/2000/svg" viewBox="0 0 400 400"><title>akka-icon</title><rect width="400" height="400" fill="#15a9ce"/><g id="icon"><path d="M309.32,304.52c48.08,38.42,78.95-76.37,2.34-97.59C247.36,189.13,182.57,219.67,117.8,291,117.8,291,237.51,247.14,309.32,304.52Z" fill="#fff" opacity="0.5"/><path d="M118.8,290c46.1-47.83,122.8-101.21,194.18-81.41,16.67,4.62,28.46,14.29,36.08,25.93L281.49,98.09c-9.65-15.35-34.29-12.26-48.19-.34L54.76,247.24A36.71,36.71,0,0,0,52.67,301l0,0a36.71,36.71,0,0,0,48.92,2.74L118.87,290Z" fill="#fff"/></g></svg>