<svg id="Layer_1" data-name="Layer 1" xmlns="http://www.w3.org/2000/svg" viewBox="0 0 172.01 51.38"><defs><style>.cls-1{fill:#009cd6;fill-rule:evenodd;}.cls-2{fill:#002d60;}</style></defs><title>POR Logo</title><path class="cls-1" d="M13.83,44.74,7.13,48.67A4.64,4.64,0,0,1,0,44.75a4.67,4.67,0,0,1,2.37-4L13.83,34l11.66,6.6L43.92,29.84a4.59,4.59,0,0,1,2.47-.72,4.64,4.64,0,0,1,2.27,8.69L25.49,51.38,13.83,44.74Z"/><path class="cls-1" d="M13.83,31.23,7.13,35.16a4.6,4.6,0,0,1-2.48.72A4.64,4.64,0,0,1,2.37,27.2l11.46-6.73,11.66,6.59L43.92,16.33a4.64,4.64,0,1,1,4.74,8L25.49,37.87,13.83,31.23Z"/><path class="cls-1" d="M37.21,6.65,43.92,2.7a4.64,4.64,0,1,1,4.74,8L37.21,17.41,25.55,10.81,7.13,21.54A4.65,4.65,0,0,1,0,17.61a4.67,4.67,0,0,1,2.37-4L25.55,0,37.21,6.65Z"/><path class="cls-2" d="M65.61,8h5.7c3.08,0,5.21,1.42,5.21,4.71s-1.82,4.86-5.07,4.86H69.34v4.75H65.61Zm3.72,6.57H70c1.35,0,2.68,0,2.68-1.75S71.41,11,70,11h-.63Z"/><path class="cls-2" d="M88.92,17.44c0,3.31-2.74,5.19-5.87,5.19s-5.87-1.86-5.87-5.19,2.74-5.21,5.87-5.21S88.92,14.12,88.92,17.44Zm-8.09,0a2.22,2.22,0,0,0,4.45,0,2.22,2.22,0,0,0-4.45,0Z"/><path class="cls-2" d="M94,14.16h0a3.39,3.39,0,0,1,3.15-1.73h.67v3.32a2.8,2.8,0,0,0-1.46-.32c-1.92,0-2.39,1.27-2.39,2.94v3.93H90.58V12.56H94Z"/><path class="cls-2" d="M103.88,22.31h-3.46v-6.9H99.3V12.56h1.12V9.64h3.46v2.93h2v2.85h-2Z"/><path class="cls-2" d="M124.28,17.44c0,3.31-2.74,5.19-5.87,5.19s-5.87-1.86-5.87-5.19,2.73-5.21,5.87-5.21S124.28,14.12,124.28,17.44Zm-8.09,0a2.22,2.22,0,0,0,4.45,0,2.22,2.22,0,0,0-4.45,0Z"/><path class="cls-2" d="M130.21,22.31h-3.46v-6.9h-1.22V12.56h1.22V11.33a4.38,4.38,0,0,1,4.39-5,3.09,3.09,0,0,1,1.48.34v3a3,3,0,0,0-1.21-.32c-.89,0-1.2.53-1.2,1.63v1.58h2.41v2.85h-2.41Z"/><path class="cls-2" d="M77.52,41.31H72.89L69.37,35.8h0v5.51H65.61V27h5.57c2.83,0,5,1.35,5,4.41a3.85,3.85,0,0,1-3.13,4Zm-8.19-7.9h.36c1.22,0,2.58-.23,2.58-1.79s-1.37-1.79-2.58-1.79h-.36Z"/><path class="cls-2" d="M89.57,36.44c0,3.31-2.74,5.19-5.87,5.19s-5.87-1.86-5.87-5.19,2.74-5.21,5.87-5.21S89.57,33.12,89.57,36.44Zm-8.09,0a2.22,2.22,0,0,0,4.45,0,2.22,2.22,0,0,0-4.45,0Z"/><path class="cls-2" d="M95.48,41.31H92v-6.9H90.9V31.56H92V28.64h3.46v2.93h2v2.85h-2Z"/><path class="cls-2" d="M103.84,41.31h-3.46v-6.9H99.26V31.56h1.12V28.64h3.46v2.93h2v2.85h-2Z"/><path class="cls-2" d="M117.48,37H110.2a1.94,1.94,0,0,0,2.16,2.17,1.73,1.73,0,0,0,1.65-.89h3.33c-.55,2.3-2.74,3.34-5,3.34-3.23,0-5.64-1.82-5.64-5.19s2.22-5.21,5.4-5.21c3.38,0,5.34,2.09,5.34,5.41Zm-3.21-2a2.07,2.07,0,0,0-4,0Z"/><path class="cls-2" d="M123.09,33.16h0a3.39,3.39,0,0,1,3.15-1.73h.67v3.32a2.8,2.8,0,0,0-1.46-.32c-1.92,0-2.39,1.27-2.39,2.94v3.93h-3.46V31.56h3.46Z"/><path class="cls-2" d="M136.14,40.22h0a3.42,3.42,0,0,1-2.94,1.41,5,5,0,0,1-4.92-5.21,5,5,0,0,1,4.88-5.19,4,4,0,0,1,3,1.27v-7h3.46V41.31h-3.46Zm-4.33-3.78a2.22,2.22,0,0,0,4.45,0,2.22,2.22,0,0,0-4.45,0Z"/><path class="cls-2" d="M153,41.31h-3.46V40.22h0a3.42,3.42,0,0,1-2.94,1.41,5,5,0,0,1-4.92-5.21,5,5,0,0,1,4.88-5.19,4,4,0,0,1,3,1.27v-.95H153Zm-7.79-4.86a2.22,2.22,0,0,0,4.45,0,2.22,2.22,0,0,0-4.45,0Z"/><path class="cls-2" d="M158.94,32.78h0a3.61,3.61,0,0,1,3.08-1.54,3.57,3.57,0,0,1,3.32,1.86,3.72,3.72,0,0,1,3.3-1.86c2.47,0,3.33,1.61,3.33,3.86v6.21h-3.46V36.65c0-1,0-2.66-1.42-2.66s-1.65,1.5-1.65,2.66v4.65H162V36.65c0-1.08,0-2.74-1.54-2.74s-1.54,1.65-1.54,2.74v4.65h-3.46V31.56h3.46Z"/></svg>