<?xml version="1.0" encoding="UTF-8" standalone="no"?>
<!-- Converted by misc2svg (http://www.network-science.de/tools/misc2svg/) -->

<svg
   xmlns:dc="http://purl.org/dc/elements/1.1/"
   xmlns:cc="http://creativecommons.org/ns#"
   xmlns:rdf="http://www.w3.org/1999/02/22-rdf-syntax-ns#"
   xmlns:svg="http://www.w3.org/2000/svg"
   xmlns="http://www.w3.org/2000/svg"
   xmlns:sodipodi="http://sodipodi.sourceforge.net/DTD/sodipodi-0.dtd"
   xmlns:inkscape="http://www.inkscape.org/namespaces/inkscape"
   width="300"
   height="60"
   viewBox="0 0 240 48"
   version="1.1"
   id="svg2"
   inkscape:version="0.48.1 "
   sodipodi:docname="Logo Rabobank.svg">
  <metadata
     id="metadata297">
    <rdf:RDF>
      <cc:Work
         rdf:about="">
        <dc:format>image/svg+xml</dc:format>
        <dc:type
           rdf:resource="http://purl.org/dc/dcmitype/StillImage" />
        <dc:title />
      </cc:Work>
    </rdf:RDF>
  </metadata>
  <defs
     id="defs295" />
  <sodipodi:namedview
     pagecolor="#ffffff"
     bordercolor="#666666"
     borderopacity="1"
     objecttolerance="10"
     gridtolerance="10"
     guidetolerance="10"
     inkscape:pageopacity="0"
     inkscape:pageshadow="2"
     inkscape:window-width="1280"
     inkscape:window-height="964"
     id="namedview293"
     showgrid="false"
     inkscape:zoom="3.8333333"
     inkscape:cx="150"
     inkscape:cy="30"
     inkscape:window-x="-4"
     inkscape:window-y="-4"
     inkscape:window-maximized="1"
     inkscape:current-layer="svg2" />
  <g
     id="g3418"
     transform="translate(-313.37819,-368.8742)">
    <path
       style="fill:#fff;fill-opacity:1;fill-rule:evenodd;stroke:none"
       d="m 472.3177,397.21795 c -0.64843,4.58985 -2.71093,6.95703 -5.53906,6.95703 -1.80469,0 -2.83203,-1.25781 -2.52344,-3.21093 l 0.98829,-6.19922 c 0.38281,-2.29297 1.75781,-4.08985 4.21093,-4.08985 2.71485,0 3.51953,1.83594 2.86328,6.54297 z m -9.32812,9.10156 c 0.37891,0 1.29687,1.60547 4.28125,1.60547 6.34766,0 9.98437,-4.58984 10.97656,-10.51562 1.26563,-7.3086 -2.28906,-10.64063 -6.76562,-10.64063 -2.10547,0 -3.52344,0.19532 -4.67188,0.80469 l 1.72656,-10.08984 -5.42968,0.0703 -5.24219,30.07031 3.97656,-0.11719 c 0,0 0.57813,-1.1875 1.1875,-1.1875 l -0.0391,0 z m 54.92578,-12.8125 c 0.80078,-4.55078 -0.87891,-6.77343 -5.81641,-6.77343 -3.66406,0 -5.00781,1.45703 -6.38671,2.83203 l 0.1914,-2.41016 -5.00781,0.0781 -0.5,3.75 -2.83203,16.64062 5.43359,-0.11719 1.71875,-10.71484 c 0.61719,-3.71094 3.17969,-6.54297 5.58594,-6.54297 2.67578,0 2.52344,1.53125 2.10547,3.86328 l -2.33203,13.51172 5.43359,-0.11719 2.40625,-14 z m 21.76172,-6.69531 -5.69141,-0.0781 -7.73047,7.88281 -0.11328,0 2.90235,-17.10156 -5.19532,0.0391 -5.24609,30.07031 5.27734,-0.11719 0.53907,-2.94531 1.07031,-6.58203 c 2.79297,0 4.35937,0.30859 5.58594,5.84766 l 0.83984,3.79687 5.39453,-0.0781 c 0,0 -1.33594,-5.66407 -2.22265,-7.88282 -0.91016,-2.33203 -2.10547,-3.71484 -4.24219,-4.1289 l 8.83203,-8.72266 z m -149.9375,7.42188 c 3.86328,-0.84375 5.69922,-4.05469 6.23828,-6.08203 1.37109,-5.58204 -1.11328,-9.94922 -8.23047,-9.8711 l -8.1875,0.15625 -5.08594,29.14063 5.46875,-0.0312 2.10157,-11.74219 c 1.11718,0 1.57422,-0.0469 2.10547,0.0391 0.57812,0.0312 1.38281,0.14844 1.875,0.5625 0.8789,0.84766 1.64453,2.64844 2.22265,6.16406 l 0.83985,5.00782 5.58593,-0.0312 c -0.64843,-3.02344 -1.07031,-5.85547 -1.60547,-8.14844 -0.57812,-2.41016 -1.3789,-4.09375 -3.36718,-5.16406 l 0.0391,0 z m 0.72656,-6.89063 c -0.46094,2.60547 -2.29687,4.25391 -4.78125,4.25391 l -3.14062,0 1.60547,-9.14453 2.8789,-0.11719 c 2.82422,-0.0742 3.85938,2.40625 3.4375,5.00781 z m 24.21094,5.36328 c 0.76562,-4.4414 -1.60547,-5.97265 -6.38672,-5.97265 -5.31641,0 -8.56641,2.83203 -8.56641,2.83203 l 1.83594,3.09765 c 0,0 2.48438,-2.25781 6.34375,-2.25781 1.26563,0 1.61328,0.83985 1.42188,2.25781 l -0.41797,2.64063 c -7.69141,-0.19141 -11.63281,1.44922 -12.51563,6.50391 -0.72265,4.1289 2.41016,5.96093 5.89453,5.96093 1.79688,0 3.21094,-0.11718 4.96875,-1.64062 0.34766,0.99609 0.91797,1.44922 1.61329,1.5664 1.10156,0.23047 3.05468,0.0391 3.63281,-0.3789 -0.043,-0.61328 0,-2.1875 0.64844,-5.85547 l 1.52734,-8.75391 z m -6.3125,5.39063 -0.53125,2.98437 c -0.38672,2.44532 -2.49219,3.59375 -4.05859,3.59375 -1.98829,0 -2.78907,-1.14843 -2.44532,-2.71484 0.45703,-2.60156 1.91407,-3.29297 3.17188,-3.64063 0.65234,-0.18359 2.7539,-0.22265 3.86328,-0.22265 z m 16.44922,9.82812 c 6.35547,0 9.98828,-4.58984 10.97656,-10.51562 1.26563,-7.3086 -2.29297,-10.64063 -6.76953,-10.64063 -2.10547,0 -3.52344,0.19532 -4.70313,0.80469 l 1.71875,-10.08984 -5.39062,0.0703 -5.24219,30.07031 3.98047,-0.11719 c 0,0 0.57422,-1.1875 1.14844,-1.1875 0.3789,0 1.30078,1.60547 4.28125,1.60547 z m 2.21875,-17.25 c 2.71484,0 3.51953,1.83594 2.86328,6.54297 -0.64063,4.58985 -2.71094,6.95703 -5.57813,6.95703 -1.79687,0 -2.83203,-1.25781 -2.48437,-3.21093 l 0.99219,-6.19922 c 0.38281,-2.29297 1.75781,-4.08985 4.16797,-4.08985 l 0.0391,0 z m 17.97656,17.36328 c -5.04687,-0.26953 -8.03125,-4.01953 -7.65234,-8.90625 0.46093,-7 4.51562,-12.89453 12.58984,-12.46875 6.38672,0.33985 7.99219,4.50782 7.76172,9.09375 -0.38281,7.23438 -4.625,12.74219 -12.66016,12.32032 l -0.0391,-0.0391 z m 0.69141,-3.74609 c 4.08984,0.23047 5.92578,-4.59375 6.19531,-8.67969 0.15625,-2.14453 0.53516,-5.01562 -2.5625,-5.13281 -4.01953,-0.23047 -6.08203,4.89844 -6.35156,8.80469 -0.1875,2.83203 0.53515,4.92969 2.67968,5.04687 l 0.0391,-0.0391 z m 51.21484,-11.66406 c 0.76563,-4.4375 -1.60547,-5.96485 -6.34766,-5.96485 -5.32031,0 -8.57031,2.82422 -8.57031,2.82422 l 1.83594,3.10157 c 0,0 2.49219,-2.25391 6.34766,-2.25391 1.26562,0 1.61328,0.83594 1.38281,2.25391 l -0.42578,2.63671 c -7.69141,-0.19531 -11.625,1.45313 -12.50391,6.50391 -0.73047,4.12891 2.40625,5.96484 5.89453,5.96484 1.79688,0 3.20703,-0.11718 4.96485,-1.64453 0.34765,0.99219 0.92187,1.45703 1.60937,1.57422 1.10938,0.22266 3.05859,0.0274 3.63281,-0.38672 -0.0391,-0.61328 0,-2.18359 0.65235,-5.85547 l 1.52734,-8.7539 z m -10.13672,5.62109 c 0.64844,-0.1914 2.75781,-0.23437 3.82813,-0.23437 l -0.53907,2.98828 c -0.3789,2.44922 -2.48437,3.59375 -4.01171,3.59375 -1.99219,0 -2.79297,-1.14453 -2.48829,-2.71485 0.45704,-2.59765 1.91016,-3.29296 3.17188,-3.63281 l 0.0391,0 z m 0,0"
       id="path7"
       inkscape:connector-curvature="0" />
    <path
       style="fill:#0766fa;fill-opacity:1;fill-rule:evenodd;stroke:none"
       d="m 327.07942,402.42108 c 0,-5.01563 6.57813,-9.10157 14.75391,-9.20313 0,0 -0.0273,-0.39453 -0.0508,-0.61719 -0.0234,-0.22656 -0.19531,-0.49609 -0.19531,-0.94531 0,-0.44531 0.37109,-2.42187 0.37109,-2.42187 0,0 -0.29688,-0.30078 -0.47266,-0.91797 -0.17187,-0.6211 -0.22656,-1.08985 -0.22656,-1.08985 0,0 -0.29297,-1.41406 -0.29297,-1.90625 0,-0.23437 0.0899,-1.04687 0.0742,-1.8125 -0.0195,-0.98046 -0.13672,-1.71093 -0.13672,-1.71093 -0.46484,1.125 -0.88281,1.65234 -1.21094,2.04687 -0.17578,0.33203 -0.28906,0.75391 -0.38671,1.09375 -0.10157,0.34766 -0.69922,1.34375 -0.69922,1.79297 0,0.5625 0.32422,1.01172 0.32422,1.1875 0,0.17578 -0.14454,0.34766 -0.14454,0.34766 0.0859,0.28125 0.15625,0.47265 -0.28125,0.47265 -0.3125,0 -0.48828,-0.32422 -0.48828,-0.86328 0,-0.30078 0.0508,-0.57031 0.0781,-0.8164 0.0195,-0.20704 0.0117,-0.39454 0.0742,-0.6211 0.28906,-1.01953 0.39062,-1.74219 0.5664,-2.85156 0.0977,-0.60938 0.44922,-0.86328 0.6211,-1.46094 0.26172,-0.94531 0.70703,-3.26172 0.88672,-3.5625 0.21093,-0.32422 0.68359,-0.48047 1.16796,-0.74219 0.46485,-0.2539 0.80079,-0.42968 0.80079,-0.93359 0,-0.37109 -0.29688,-0.35156 -0.45313,-0.53125 -0.13281,-0.15625 -0.0977,-1.1875 -0.0977,-1.66016 0,-0.46875 -0.10156,-0.52343 -0.10156,-0.9375 0,-0.42187 0.1836,-1.25 1.06641,-1.25 0.3789,0 0.5039,0.35547 0.66406,0.71094 0.17578,0.39063 0.32422,0.58203 0.32422,1.30469 0,0.44531 -0.64453,0.89062 -0.64453,1.76562 0,0.25 0.22265,0.78125 1.50781,0.78125 0.53516,0 0.83594,0.64844 0.88281,0.89063 0.0508,0.25 0.0117,0.52734 0.0586,0.85937 0.0547,0.33594 0.28125,0.59375 0.36718,0.89454 0.082,0.29296 0.26954,1.41796 0.32032,1.6289 0.0469,0.21094 0.41797,1.14063 0.49218,1.57422 0.0703,0.43359 0.20704,1.98047 0.33594,2.66016 0.1211,0.67968 0.1836,0.64843 0.23438,0.95312 0.0586,0.39844 0.21875,0.39063 0.21875,0.66797 0,0.28516 -0.46875,1.13672 -0.78907,1.13672 -0.26171,0 -0.35937,-0.77344 -0.35937,-1.02344 0,-0.62109 0.21484,-0.79297 0.21484,-1.64844 0,-0.64062 -0.17968,-0.8125 -0.52734,-1.57031 -0.34375,-0.75781 -0.51563,-1.05469 -0.56641,-1.28906 -0.0469,-0.23438 -0.41015,-0.71875 -0.49609,-1.03906 -0.13281,-0.48828 -0.33203,-1.08985 -0.33203,-1.08985 0,0 -0.44531,1.16016 -0.52344,1.91016 -0.0117,0.12109 -0.26172,0.57812 -0.23047,0.97656 0.0195,0.32813 0.33203,0.35938 0.55469,0.91406 0.22266,0.5586 0.16016,0.76954 0.16016,1.625 0,0.84766 -0.54297,2 -0.54297,2 0.25,0.29688 0.60547,1.71485 0.92968,2.25782 0.1836,0.3125 0.76954,0.60156 1.33204,1.08203 0.80468,0.69922 0.86718,1.64062 1.36718,2.39453 5.63672,1.32812 9.62891,4.66797 9.62891,8.58203 0,6.36719 -6.80469,10.82422 -15.07422,10.82422 -8.26953,0 -15.05469,-3.82813 -15.05469,-10.82031 z m 16.19141,-9.17969 c 0.74219,0.0352 1.47656,0.10547 2.18359,0.19531 0,0 -0.33203,-0.49219 -0.61328,-0.7539 -0.28515,-0.25391 -0.7539,-0.4961 -1.03125,-0.73829 -0.28515,-0.2539 -0.35937,-0.64453 -0.59765,-0.76562 -0.0781,0.19531 -0.14063,0.45312 -0.14063,0.65234 0,0.20703 0.19922,1.41016 0.19922,1.41016 z m 0,0"
       id="path9"
       inkscape:connector-curvature="0" />
    <path
       style="fill:#faa10c;fill-opacity:1;fill-rule:evenodd;stroke:none"
       d="m 343.12239,401.1203 c 0.32813,0.0859 0.88672,0.23437 0.88672,0.23437 l -0.64453,0.0977 -1.40625,4.875 -1.41406,-4.86719 -6.89844,-0.82422 6.89844,-0.82031 1.17578,-3.08594 c 0,0 0.0234,0.54297 -0.0586,0.91016 -0.0898,0.36718 -0.0937,0.5625 -0.21093,0.82031 -0.0859,0.29687 -0.22657,0.75 -0.22657,0.75 0,0 -0.59375,0.61719 -0.78125,0.71875 -0.18359,0.0977 -0.64062,0.0234 -0.64062,0.27344 0,0.0234 0.0117,0.0859 0.0117,0.0859 l -1.71875,0.0117 0,0.0859 1.74609,-0.0273 c 0.14844,0.23828 0.74219,0.22265 0.74219,0.22265 l 0.0469,0.12891 c 0,0 -0.16015,0.27344 -0.16015,0.39453 0,0.12109 0.11328,0.18359 0.20703,0.18359 0.10156,0 0.375,-0.0625 0.375,-0.0625 0.57031,0.4375 1.64453,0.30469 2.07031,-0.10546 z m 0,0"
       id="path11"
       inkscape:connector-curvature="0" />
    <path
       style="fill:#faa10c;fill-opacity:1;fill-rule:evenodd;stroke:none"
       d="m 343.26302,394.9953 c 1.42968,0.0937 2.78125,0.36718 3.98437,0.77343 0,0 0.13672,0.41407 0.15625,0.58594 0.13281,0.27734 0.16016,0.73047 0.16016,0.73047 l -4.4336,1.8125 -0.53125,-1.52734 c 0,0 0.19922,-0.85938 0.38282,-1.34766 0.1875,-0.48438 0.28125,-1.02734 0.28125,-1.02734 z m 0,0"
       id="path13"
       inkscape:connector-curvature="0" />
    <path
       style="fill:#faa10c;fill-opacity:1;fill-rule:evenodd;stroke:none"
       d="m 347.1927,395.64764 c -1.1914,-0.39063 -2.51562,-0.65234 -3.91015,-0.74219 0,0 0.15625,-0.54297 0.0195,-1.4414 0.8125,0.0391 1.60937,0.12109 2.38281,0.24218 0.16016,0.20703 1.1875,1.07032 1.50781,1.94141 z m 0,0"
       id="path15"
       inkscape:connector-curvature="0" />
    <path
       style="fill:#faa10c;fill-opacity:1;fill-rule:evenodd;stroke:none"
       d="m 348.54036,396.28436 c 2.55078,1.18359 4.19531,3.02734 4.19531,5.03906 0,0.29297 -0.0391,0.58594 -0.11718,0.87891 -0.29297,-0.0781 -1.01172,-0.45703 -1.10547,-0.83594 -0.0937,-0.38281 -0.0469,-0.39844 -0.0586,-0.47266 -0.0117,-0.0742 -0.125,-0.55078 -0.29297,-0.96484 -0.22656,-0.57813 -1.10937,-1.14063 -1.16015,-1.375 -0.0586,-0.23828 -0.0117,-0.48047 -0.0117,-0.64063 0,-0.16406 -0.17578,-0.3125 -0.47266,-0.3125 -0.29687,0 -0.44531,0.12891 -0.69922,0.12891 -0.2539,0 -0.4375,-0.0859 -0.4375,-0.0859 0.125,-0.29297 0.0195,-0.33984 0.0195,-0.78125 0,-0.38281 0.14062,-0.57812 0.14062,-0.57812 z m 0,0"
       id="path17"
       inkscape:connector-curvature="0" />
    <path
       style="fill:#faa10c;fill-opacity:1;fill-rule:evenodd;stroke:none"
       d="m 356.58724,401.67498 c 0.0156,0.16797 0.0234,0.33985 0.0234,0.50782 0,0.30859 -0.0234,0.60546 -0.0781,0.90234 l -1.88281,-0.45313 -1.80079,-0.35937 c 0.0703,-0.28906 0.10547,-0.5625 0.10547,-0.85156 0,-2.09766 -1.72265,-4.02735 -4.3789,-5.24219 0.0469,-0.14063 0.39062,-0.44141 0.39062,-0.77344 0,-0.21484 -0.5,-0.35937 -0.78906,-0.64453 -0.19531,-0.17969 -0.41406,-0.625 -0.41406,-0.625 4.5,1.17188 7.83203,3.69141 8.65234,6.64063 0,0 -0.90625,-0.29688 -1.28906,-0.29688 -0.14453,-0.27734 -0.23047,-0.52344 -0.23047,-0.52344 l -0.0508,0.14844 c -0.5625,0.0234 -1.35938,0.008 -1.35938,0.008 l -0.1289,-0.12109 0.13281,0.36719 0.0547,-0.11719 1.34375,0 0.14062,0.10547 -0.0234,0.11328 c -0.1875,-0.008 -0.34765,0.043 -0.34765,0.043 l -1.01563,0 -0.125,-0.0899 0.0781,0.32813 0.0625,-0.11719 0.69922,0.0156 c -0.11328,0.0937 0,0.25 0,0.25 l -0.64453,0.004 -0.10547,-0.10156 0.0547,0.33984 0.0781,-0.10937 0.71875,0.0234 c 0.51172,0.5625 2.12891,0.6289 2.12891,0.6289 z m 0,0"
       id="path19"
       inkscape:connector-curvature="0" />
    <path
       style="fill:#faa10c;fill-opacity:1;fill-rule:evenodd;stroke:none"
       d="m 347.32552,401.01092 1.82422,-0.26953 c 0.0117,0.27344 0.0898,0.50781 0.004,0.89453 -1.03906,-0.12891 -1.82812,-0.625 -1.82812,-0.625 z m 0,0"
       id="path21"
       inkscape:connector-curvature="0" />
    <path
       style="fill:#faa10c;fill-opacity:1;fill-rule:evenodd;stroke:#0766fa;stroke-width:0.02498775;stroke-linecap:butt;stroke-linejoin:miter;stroke-miterlimit:10;stroke-opacity:1"
       d="m 342.46615,399.29608 c 0,0 -0.0704,-0.375 -0.0704,-0.78125 0,-0.40234 0.15234,-0.91406 0.15234,-0.91406 l 0.79687,2.21485 5.80079,0.58593 0.004,0.24609 -1.97265,0.27735 c 0,0 -0.5,-0.32422 -1.46094,-0.42187 l 2.88672,0.039 0.043,-0.11713 -4.94923,-0.007 -0.28515,-0.0586 c 0,0 -0.1055,-0.57032 -0.90625,-0.76172 l -0.039,-0.30078 z m 0,0"
       id="path23"
       inkscape:connector-curvature="0" />
    <path
       style="fill:#faa10c;fill-opacity:1;fill-rule:evenodd;stroke:#0766fa;stroke-width:0.02498775;stroke-linecap:butt;stroke-linejoin:miter;stroke-miterlimit:10;stroke-opacity:1"
       d="m 343.17708,398.9953 4.32813,-1.77343 -2.77344,2.6289 -0.57031,-0.0625 1.5,-0.96484 -0.039,-0.0586 -1.65625,1.01173 -0.46094,-0.0507 3.3125,-2.05469 -0.039,-0.0586 -3.38281,2.03125 -0.21875,-0.64844 z m 0,0"
       id="path25"
       inkscape:connector-curvature="0" />
    <path
       style="fill:#faa10c;fill-opacity:1;fill-rule:evenodd;stroke:none"
       d="m 342.52864,399.75311 c 0.48828,0.17578 0.57813,0.48828 0.57813,0.48828 l -0.5625,-0.29297 -0.0156,-0.19531 z m 0,0"
       id="path27"
       inkscape:connector-curvature="0" />
    <path
       style="fill:#faa10c;fill-opacity:1;fill-rule:evenodd;stroke:none"
       d="m 344.88802,399.86639 2.67968,-2.57031 c 0.0352,0.0937 0.0586,0.15625 0.0312,0.24218 -0.0586,0.15625 -0.46875,0.3125 -0.46875,0.55469 0,0.11719 0.0977,0.13281 0.19532,0.13281 0.0937,0 0.23437,-0.10937 0.33984,-0.0781 0.21094,0.0508 0.63672,0.17187 0.82031,0.45312 0.3125,0.47266 0.57422,1.17969 0.64453,1.70313 -0.73046,-0.0547 -4.24218,-0.4375 -4.24218,-0.4375 z m 0,0"
       id="path29"
       inkscape:connector-curvature="0" />
    <path
       style="fill:#faa10c;fill-opacity:1;fill-rule:evenodd;stroke:none"
       d="m 349.5052,406.09295 c 0.76563,-0.4414 1.42969,-0.94531 1.96485,-1.49609 0.33203,0.15234 0.70312,0.54297 1.6289,0.98828 0.66407,0.32422 1.57813,0.57031 1.83204,0.69141 -0.19141,0.21875 -0.39063,0.42578 -0.60547,0.6289 -0.78907,-0.2539 -3.57813,0.0195 -4.82032,-0.8125 z m 0,0"
       id="path31"
       inkscape:connector-curvature="0" />
    <path
       style="fill:#faa10c;fill-opacity:1;fill-rule:evenodd;stroke:#0766fa;stroke-width:0.02498775;stroke-linecap:butt;stroke-linejoin:miter;stroke-miterlimit:10;stroke-opacity:1"
       d="m 341.72005,396.4367 -0.91407,2.42579 -4.55468,-1.76563 -0.0743,0.0625 2.85546,2.73438 -5.7539,0.70312 0,0.11325 5.65234,0.67969 -3.69922,3.33594 0.0781,0.0781 5.40625,-2.30468 1.17969,4.13672 0.13671,-0.007 1.16016,-4.17187 5.42578,2.33202 0.082,-0.1055 -3.32813,-2.98047 c 0,0 1.68359,0.39453 2.08594,0.60156 0.39452,0.21094 1.25781,0.8086 1.75,1.01562 0.5,0.21094 0.59765,0.14063 0.75,0.20313 0.14452,0.0586 1.30077,0.90235 1.30077,0.90235 -0.5664,0.5664 -1.25781,1.07812 -2.0664,1.52734 0,0 -0.5625,-0.33984 -1.08203,-0.0469 -0.43359,0.25 -0.13672,0.64063 -0.13672,0.64063 -1.71093,0.71093 -3.74218,1.14062 -5.86718,1.14062 -5.8711,0 -10.63673,-2.54687 -10.63673,-6.36327 0,-3.44532 4.57031,-6.25 10.27344,-6.36329 -0.082,0.6875 -0.0235,1.47656 -0.0235,1.47656 z m 0,0"
       id="path33"
       inkscape:connector-curvature="0" />
    <path
       style="fill:#faa10c;fill-opacity:1;fill-rule:evenodd;stroke:none"
       d="m 341.34895,401.10467 c 0.53125,-0.27344 1.4336,-0.0508 1.4336,-0.0508 -0.24219,0.16406 -0.42578,0.21875 -0.71485,0.22266 -0.28906,0.004 -0.46484,-0.0274 -0.71875,-0.17188 z m 0,0"
       id="path35"
       inkscape:connector-curvature="0" />
    <path
       style="fill:#0766fa;fill-opacity:1;fill-rule:evenodd;stroke:none"
       d="m 335.24349,400.61248 4.92578,0.0977 0,0.082 -4.9375,-0.0742 0.0117,-0.10547 z m 0,0"
       id="path37"
       inkscape:connector-curvature="0" />
    <path
       style="fill:#faa10c;fill-opacity:1;fill-rule:evenodd;stroke:#0766fa;stroke-width:0.02498775;stroke-linecap:butt;stroke-linejoin:miter;stroke-miterlimit:10;stroke-opacity:1"
       d="m 339.10677,401.40155 0.59375,0.0743 -1.73047,1.11719 0.125,0.0351 1.79297,-1.12109 0.41015,0.0235 -4.13671,2.60548 0.0508,0.0507 4.25781,-2.58984 0.19923,0.78125 -5.14063,2.21875 3.57813,-3.19531 z m 0,0"
       id="path39"
       inkscape:connector-curvature="0" />
    <path
       style="fill:#faa10c;fill-opacity:1;fill-rule:evenodd;stroke:#0766fa;stroke-width:0.02498775;stroke-linecap:butt;stroke-linejoin:miter;stroke-miterlimit:10;stroke-opacity:1"
       d="m 339.19271,399.87812 -2.78125,-2.63673 4.33984,1.71094 -0.1289,0.35937 -1.53907,-0.92187 -0.0899,0.0235 1.58985,1.00781 -0.10163,0.23437 -3.48047,-2.0664 -0.0743,0.0235 3.44531,2.11328 -1.17969,0.15235 z m 0,0"
       id="path41"
       inkscape:connector-curvature="0" />
    <path
       style="fill:#0766fa;fill-opacity:1;fill-rule:evenodd;stroke:#0766fa;stroke-width:0.02498775;stroke-linecap:butt;stroke-linejoin:miter;stroke-miterlimit:10;stroke-opacity:1"
       d="m 341.41146,401.63593 0.10162,0.0156 -0.0625,2.14453 -0.0859,-0.0195 0.0469,-2.14063 z m 0,0"
       id="path43"
       inkscape:connector-curvature="0" />
    <path
       style="fill:#0766fa;fill-opacity:1;fill-rule:evenodd;stroke:#0766fa;stroke-width:0.02498775;stroke-linecap:butt;stroke-linejoin:miter;stroke-miterlimit:10;stroke-opacity:1"
       d="m 341.91927,401.70233 0.11325,0.0112 -0.0156,3.96484 -0.12113,-0.043 0.0235,-3.93361 z m 0,0"
       id="path45"
       inkscape:connector-curvature="0" />
    <path
       style="fill:#faa10c;fill-opacity:1;fill-rule:evenodd;stroke:#0766fa;stroke-width:0.02498775;stroke-linecap:butt;stroke-linejoin:miter;stroke-miterlimit:10;stroke-opacity:1"
       d="m 343.23177,402.3703 0.11325,-0.37891 1.83204,1.05469 0.0312,-0.086 -1.82813,-1.0625 0.086,-0.30078 4.12109,2.51563 0.11325,-0.0156 -4.13672,-2.56641 0.65235,-0.11713 0.85937,0.19923 3.28515,2.89452 -5.1289,-2.13671 z m 0,0"
       id="path47"
       inkscape:connector-curvature="0" />
    <path
       style="fill:#faa10c;fill-opacity:1;fill-rule:evenodd;stroke:none"
       d="m 341.75911,394.85858 c -5.83203,0.11328 -10.5,3.00781 -10.5,6.5625 0,3.92578 4.85547,6.55859 10.84766,6.55859 2.21875,0 4.33593,-0.46484 6.10156,-1.22266 0.35547,0.3125 1.25,0.46094 1.52344,0.51563 0.27343,0.0469 1.11328,0.35937 1.11328,0.35937 l 0.41015,0.0469 c 0.3125,0.0898 0.91797,0.42187 1.375,0.53125 -2.6289,1.67187 -6.35546,2.72266 -10.48046,2.72266 -7.98829,0 -14.46875,-3.51563 -14.46875,-8.75 0,-4.76954 6.3125,-8.65235 14.16406,-8.7461 l 0,0.45313 -0.3125,0.29687 -0.27344,-0.27344 -0.33203,0.0156 0.19531,0.082 0.30469,0.24609 -0.28906,0.26954 -0.16016,0.0781 0.34766,0 -0.10157,-0.0625 0.26172,-0.23437 0.3086,0.27343 -0.0352,0.27735 z m 0,0"
       id="path49"
       inkscape:connector-curvature="0" />
    <path
       style="fill:#0766fa;fill-opacity:1;fill-rule:evenodd;stroke:none"
       d="m 348.6302,407.29608 1.53516,0.82812 0.26953,-0.0234 -0.65625,0.29688 0.0664,-0.1875 -0.96875,-0.55859 c 0.0391,0.34765 0.27344,0.8789 0.27344,0.8789 l 0.21093,0.0391 -0.48437,0.20313 0.12109,-0.1875 -0.36719,-1.28906 z m 0,0"
       id="path51"
       inkscape:connector-curvature="0" />
    <path
       style="fill:#0766fa;fill-opacity:1;fill-rule:evenodd;stroke:none"
       d="m 350.98177,397.0578 0.21093,0.0469 0.88282,-0.3125 0.0195,-0.12109 0.32422,0.22656 -0.19532,-0.0156 -0.95312,0.32032 -0.0156,0.11328 -0.27343,-0.25781 z m 0,0"
       id="path53"
       inkscape:connector-curvature="0" />
    <path
       style="fill:#0766fa;fill-opacity:1;fill-rule:evenodd;stroke:none"
       d="m 351.35286,397.37811 0.21484,0.0508 0.875,-0.30859 0.0391,-0.16797 0.30468,0.26562 -0.21875,-0.0234 -0.92578,0.33204 -0.0156,0.11328 -0.27344,-0.26172 z m 0,0"
       id="path55"
       inkscape:connector-curvature="0" />
    <path
       style="fill:#faa10c;fill-opacity:1;fill-rule:evenodd;stroke:none"
       d="m 341.61067,394.21795 0.23438,-0.22265 -0.0391,0.42578 -0.19532,-0.20313 z m 0,0"
       id="path57"
       inkscape:connector-curvature="0" />
    <path
       style="fill:#0766fa;fill-opacity:1;fill-rule:evenodd;stroke:none"
       d="m 336.88802,394.60467 0.30078,-0.11328 -0.0117,0.0898 0.46094,0.46875 0.13281,0.0234 -0.36719,0.11328 0.0586,-0.0742 -0.4336,-0.47265 -0.14062,-0.0352 z m 0,0"
       id="path59"
       inkscape:connector-curvature="0" />
    <path
       style="fill:#0766fa;fill-opacity:1;fill-rule:evenodd;stroke:none"
       d="m 337.23567,395.22576 -0.39453,0.13282 0.0391,-0.0977 -0.35937,-0.0977 -0.10938,0.28125 0.1211,0 -0.32031,0.13672 0.125,-0.13672 0.0937,-0.29687 -0.54297,-0.17578 -0.19532,0 0.35938,-0.1211 0,0.0547 0.40234,0.1211 0.0899,-0.27344 -0.16407,-0.0117 0.27344,-0.10156 -0.10937,0.38672 0.48437,0.18359 0.20703,0.0156 z m 0,0"
       id="path61"
       inkscape:connector-curvature="0" />
    <path
       style="fill:#0766fa;fill-opacity:1;fill-rule:evenodd;stroke:none"
       d="m 331.84114,396.95233 0.25781,-0.17969 -0.0312,0.14844 0.20704,0.30468 0.70312,-0.0234 0.26172,-0.0586 -0.30859,0.30078 0,-0.11718 -0.56641,0.0117 0.15625,0.27343 0.18359,-0.0234 -0.23437,0.21875 0,-0.16016 -0.1836,-0.32031 -0.69531,0.0117 -0.30469,0.0898 0.32032,-0.29688 0.0586,0.1211 0.52344,-0.0274 -0.1875,-0.27343 -0.16016,0 z m 0,0"
       id="path63"
       inkscape:connector-curvature="0" />
    <path
       style="fill:#0766fa;fill-opacity:1;fill-rule:evenodd;stroke:none"
       d="m 329.16536,400.42498 0.0977,-0.33593 0.11328,0.18359 0.48047,0.19531 0.73437,-0.22656 0.14844,-0.17578 -0.0742,0.34765 -0.0898,-0.0664 -0.51563,0.19922 0.42969,0.19531 0.13672,-0.0937 -0.11328,0.70703 -0.0977,-0.11328 -1.33984,0.008 -0.14453,0.15235 0.17187,-0.78125 0.125,0.0781 c 0.17188,-0.0195 0.50781,-0.19531 0.50781,-0.19531 l -0.41015,-0.17969 -0.16016,0.10156 z m 0,0"
       id="path65"
       inkscape:connector-curvature="0" />
    <path
       style="fill:#faa10c;fill-opacity:1;fill-rule:evenodd;stroke:none"
       d="m 329.05208,400.9992 0.1875,-0.17969 0.64453,-0.22265 0.58203,0.22265 0.0625,0.16407 -0.125,0.10547 -1.30078,0 -0.0508,-0.0899 z m 0,0"
       id="path67"
       inkscape:connector-curvature="0" />
    <path
       style="fill:#0766fa;fill-opacity:1;fill-rule:evenodd;stroke:none"
       d="m 329.22786,403.94061 0.27344,0.0508 1.18359,-0.4375 0.11719,-0.20703 0.17187,0.3789 -0.16406,-0.0586 -1.30859,0.42969 -0.10156,0.21484 c -0.082,-0.13672 -0.17188,-0.37109 -0.17188,-0.37109 z m 0,0"
       id="path69"
       inkscape:connector-curvature="0" />
    <path
       style="fill:#0766fa;fill-opacity:1;fill-rule:evenodd;stroke:none"
       d="m 329.42708,404.40155 0.28125,0.0391 1.17187,-0.47266 0.10157,-0.21875 0.1875,0.37891 -0.16407,-0.0547 -1.29296,0.48047 -0.0899,0.19531 c -0.0859,-0.14062 -0.19531,-0.34765 -0.19531,-0.34765 z m 0,0"
       id="path71"
       inkscape:connector-curvature="0" />
    <path
       style="fill:#0766fa;fill-opacity:1;fill-rule:evenodd;stroke:none"
       d="m 329.66145,404.81951 0.23438,0.0117 1.26562,-0.51953 0.0234,-0.17578 0.20313,0.34766 -0.16797,-0.0547 -1.27344,0.53125 -0.0742,0.15625 c -0.0976,-0.12891 -0.21094,-0.29688 -0.21094,-0.29688 z m 0,0"
       id="path73"
       inkscape:connector-curvature="0" />
    <path
       style="fill:#0766fa;fill-opacity:1;fill-rule:evenodd;stroke:none"
       d="m 329.89583,405.16717 0.23437,0.0234 1.67969,-0.19922 -1.19531,0.89453 0.0117,0.15625 -0.28516,-0.30859 0.1875,0.0156 0.83985,-0.63281 -1.26954,0.16406 0,0.10547 -0.20312,-0.21875 z m 0,0"
       id="path75"
       inkscape:connector-curvature="0" />
    <path
       style="fill:#0766fa;fill-opacity:1;fill-rule:evenodd;stroke:none"
       d="m 334.29427,406.8742 0.41797,0.21094 -0.1836,0.0117 -0.88281,0.96484 0.11328,0.17188 0.22656,0.0156 0.91016,-0.94531 -0.0625,-0.16016 0.48437,0.19141 -0.19531,0.0234 -0.8789,0.96093 0.17968,0.17969 0.19922,0.0117 1.55469,-0.86719 -0.41016,1.23438 0.1211,0.16797 -0.60547,-0.21875 0.22265,-0.0234 0.38282,-0.94141 -1.19141,0.6836 0.13672,0.13281 c -0.90234,-0.26953 -1.62109,-0.71484 -1.62109,-0.71484 l 0.22656,-0.0391 0.92578,-0.90234 -0.0703,-0.14844 z m 0,0"
       id="path77"
       inkscape:connector-curvature="0" />
    <path
       style="fill:#0766fa;fill-opacity:1;fill-rule:evenodd;stroke:none"
       d="m 340.79036,408.53045 0.66016,0.0156 -0.19141,0.0742 -0.008,1.13281 0.23437,0.0898 0.20703,-0.0312 0.69922,-1.28906 0.0742,0 0.67969,1.23047 0.17187,0.0781 -0.73046,0.0274 0.22265,-0.125 -0.48047,-0.85938 -0.48437,0.92188 0.19531,0.0625 c -0.58984,0.0508 -1.33594,0.0117 -1.33594,0.0117 l 0.26172,-0.0899 0,-1.17187 -0.17578,-0.0781 z m 0,0"
       id="path79"
       inkscape:connector-curvature="0" />
    <path
       style="fill:#faa10c;fill-opacity:1;fill-rule:evenodd;stroke:none"
       d="m 340.92317,393.30389 0.42578,-0.0273 0.0234,0.11328 -0.40625,0.0195 -0.043,-0.10547 z m 0,0"
       id="path81"
       inkscape:connector-curvature="0" />
    <path
       style="fill:#faa10c;fill-opacity:1;fill-rule:evenodd;stroke:none"
       d="m 340.35286,393.33123 0.42578,-0.0273 0.0469,0.10547 -0.40625,0.0351 -0.0664,-0.11328 z m 0,0"
       id="path83"
       inkscape:connector-curvature="0" />
    <path
       style="fill:#faa10c;fill-opacity:1;fill-rule:evenodd;stroke:none"
       d="m 339.78645,393.38592 0.42969,-0.0391 0.0781,0.0976 -0.45313,0.0469 -0.0547,-0.10547 z m 0,0"
       id="path85"
       inkscape:connector-curvature="0" />
    <path
       style="fill:#faa10c;fill-opacity:1;fill-rule:evenodd;stroke:none"
       d="m 339.22005,393.44451 0.42578,-0.0469 0.0508,0.10547 -0.39844,0.0508 -0.0781,-0.10938 z m 0,0"
       id="path87"
       inkscape:connector-curvature="0" />
    <path
       style="fill:#faa10c;fill-opacity:1;fill-rule:evenodd;stroke:none"
       d="m 338.63411,393.52264 0.46875,-0.0625 0.0508,0.10547 -0.45312,0.0586 -0.0664,-0.10156 z m 0,0"
       id="path89"
       inkscape:connector-curvature="0" />
    <path
       style="fill:#faa10c;fill-opacity:1;fill-rule:evenodd;stroke:none"
       d="m 341.48177,393.27264 0.35937,-0.004 0.004,0.11328 -0.33985,0.004 -0.0234,-0.11328 z m 0,0"
       id="path91"
       inkscape:connector-curvature="0" />
    <path
       style="fill:#faa10c;fill-opacity:1;fill-rule:evenodd;stroke:none"
       d="m 338.07552,393.61639 0.44922,-0.0742 0.0508,0.0898 -0.42578,0.0742 -0.0742,-0.0898 z m 0,0"
       id="path93"
       inkscape:connector-curvature="0" />
    <path
       style="fill:#faa10c;fill-opacity:1;fill-rule:evenodd;stroke:none"
       d="m 337.52864,393.71795 0.42578,-0.0859 0.0664,0.10157 -0.43359,0.0859 -0.0586,-0.10156 z m 0,0"
       id="path95"
       inkscape:connector-curvature="0" />
    <path
       style="fill:#faa10c;fill-opacity:1;fill-rule:evenodd;stroke:none"
       d="m 336.96224,393.83514 0.44531,-0.0977 0.0547,0.10547 -0.42188,0.0859 -0.0781,-0.0937 z m 0,0"
       id="path97"
       inkscape:connector-curvature="0" />
    <path
       style="fill:#faa10c;fill-opacity:1;fill-rule:evenodd;stroke:none"
       d="m 336.41927,393.97576 0.42187,-0.11718 0.0781,0.0976 -0.42578,0.10157 -0.0742,-0.082 z m 0,0"
       id="path99"
       inkscape:connector-curvature="0" />
    <path
       style="fill:#faa10c;fill-opacity:1;fill-rule:evenodd;stroke:none"
       d="m 335.88411,394.10858 0.41016,-0.11328 0.082,0.0976 -0.41797,0.11719 -0.0742,-0.10156 z m 0,0"
       id="path101"
       inkscape:connector-curvature="0" />
    <path
       style="fill:#faa10c;fill-opacity:1;fill-rule:evenodd;stroke:none"
       d="m 335.26302,394.29608 0.4414,-0.14453 0.0899,0.0937 -0.42969,0.15234 -0.10156,-0.10156 z m 0,0"
       id="path103"
       inkscape:connector-curvature="0" />
    <path
       style="fill:#faa10c;fill-opacity:1;fill-rule:evenodd;stroke:none"
       d="m 334.67708,394.49139 0.45312,-0.14844 0.10938,0.0977 -0.45313,0.15625 -0.10937,-0.10547 z m 0,0"
       id="path105"
       inkscape:connector-curvature="0" />
    <path
       style="fill:#faa10c;fill-opacity:1;fill-rule:evenodd;stroke:none"
       d="m 334.08333,394.71795 0.45312,-0.17969 0.0859,0.0977 -0.44531,0.16797 -0.0937,-0.0859 z m 0,0"
       id="path107"
       inkscape:connector-curvature="0" />
    <path
       style="fill:#faa10c;fill-opacity:1;fill-rule:evenodd;stroke:none"
       d="m 333.5638,394.9367 0.38672,-0.17578 0.082,0.10547 -0.3711,0.16016 -0.0976,-0.0899 z m 0,0"
       id="path109"
       inkscape:connector-curvature="0" />
    <path
       style="fill:#faa10c;fill-opacity:1;fill-rule:evenodd;stroke:none"
       d="m 332.99739,395.19061 0.42188,-0.19531 0.0976,0.0976 -0.40625,0.1875 -0.11328,-0.0898 z m 0,0"
       id="path111"
       inkscape:connector-curvature="0" />
    <path
       style="fill:#faa10c;fill-opacity:1;fill-rule:evenodd;stroke:none"
       d="m 332.48567,395.45233 0.39063,-0.21094 0.10547,0.0937 -0.37891,0.20312 -0.11719,-0.0859 z m 0,0"
       id="path113"
       inkscape:connector-curvature="0" />
    <path
       style="fill:#faa10c;fill-opacity:1;fill-rule:evenodd;stroke:none"
       d="m 331.98177,395.72576 0.36718,-0.20312 0.125,0.0781 -0.35546,0.20313 -0.13672,-0.0781 z m 0,0"
       id="path115"
       inkscape:connector-curvature="0" />
    <path
       style="fill:#faa10c;fill-opacity:1;fill-rule:evenodd;stroke:none"
       d="m 331.45052,396.02655 0.375,-0.22266 0.16406,0.0781 -0.39844,0.23829 -0.14062,-0.0937 z m 0,0"
       id="path117"
       inkscape:connector-curvature="0" />
    <path
       style="fill:#faa10c;fill-opacity:1;fill-rule:evenodd;stroke:none"
       d="m 330.98958,396.35467 0.35937,-0.26172 0.13672,0.0899 -0.35156,0.23437 -0.14453,-0.0625 z m 0,0"
       id="path119"
       inkscape:connector-curvature="0" />
    <path
       style="fill:#faa10c;fill-opacity:1;fill-rule:evenodd;stroke:none"
       d="m 330.53645,396.66717 0.34375,-0.23047 0.14454,0.0703 -0.33204,0.2461 -0.15625,-0.0859 z m 0,0"
       id="path121"
       inkscape:connector-curvature="0" />
    <path
       style="fill:#faa10c;fill-opacity:1;fill-rule:evenodd;stroke:none"
       d="m 330.08724,397.02655 0.34375,-0.27344 0.15234,0.0781 -0.33984,0.28516 -0.15625,-0.0898 z m 0,0"
       id="path123"
       inkscape:connector-curvature="0" />
    <path
       style="fill:#faa10c;fill-opacity:1;fill-rule:evenodd;stroke:none"
       d="m 329.67708,397.37811 0.32031,-0.26172 0.16016,0.0664 -0.27735,0.26562 -0.20312,-0.0703 z m 0,0"
       id="path125"
       inkscape:connector-curvature="0" />
    <path
       style="fill:#faa10c;fill-opacity:1;fill-rule:evenodd;stroke:none"
       d="m 329.29817,397.76873 0.30078,-0.30078 0.16797,0.0586 -0.27734,0.30078 -0.19141,-0.0586 z m 0,0"
       id="path127"
       inkscape:connector-curvature="0" />
    <path
       style="fill:#faa10c;fill-opacity:1;fill-rule:evenodd;stroke:none"
       d="m 328.93099,398.15936 0.29687,-0.3125 0.1875,0.0664 -0.28906,0.30079 -0.19531,-0.0547 z m 0,0"
       id="path129"
       inkscape:connector-curvature="0" />
    <path
       style="fill:#faa10c;fill-opacity:1;fill-rule:evenodd;stroke:none"
       d="m 328.59114,398.56561 0.26563,-0.3086 0.21484,0.0469 -0.23437,0.30469 -0.2461,-0.043 z m 0,0"
       id="path131"
       inkscape:connector-curvature="0" />
    <path
       style="fill:#faa10c;fill-opacity:1;fill-rule:evenodd;stroke:none"
       d="m 328.32552,398.96014 0.21093,-0.30078 0.23438,0.043 -0.20703,0.29687 -0.23828,-0.0391 z m 0,0"
       id="path133"
       inkscape:connector-curvature="0" />
    <path
       style="fill:#faa10c;fill-opacity:1;fill-rule:evenodd;stroke:none"
       d="m 328.02864,399.40936 0.21485,-0.33985 0.24218,0.0274 -0.1914,0.32812 -0.26563,-0.0156 z m 0,0"
       id="path135"
       inkscape:connector-curvature="0" />
    <path
       style="fill:#faa10c;fill-opacity:1;fill-rule:evenodd;stroke:none"
       d="m 327.78645,399.83905 0.19532,-0.32032 0.26172,0.0117 -0.15625,0.32813 -0.30079,-0.0195 z m 0,0"
       id="path137"
       inkscape:connector-curvature="0" />
    <path
       style="fill:#faa10c;fill-opacity:1;fill-rule:evenodd;stroke:none"
       d="m 327.59114,400.31951 0.16406,-0.36328 0.27344,0.0156 -0.13281,0.34765 -0.30469,0 z m 0,0"
       id="path139"
       inkscape:connector-curvature="0" />
    <path
       style="fill:#faa10c;fill-opacity:1;fill-rule:evenodd;stroke:none"
       d="m 327.45052,400.74139 0.11718,-0.31641 0.30469,0 -0.10156,0.33203 -0.32031,-0.0156 z m 0,0"
       id="path141"
       inkscape:connector-curvature="0" />
    <path
       style="fill:#faa10c;fill-opacity:1;fill-rule:evenodd;stroke:none"
       d="m 327.32552,401.23748 0.0976,-0.36718 0.3086,0.004 -0.0899,0.36719 -0.3164,-0.004 z m 0,0"
       id="path143"
       inkscape:connector-curvature="0" />
    <path
       style="fill:#faa10c;fill-opacity:1;fill-rule:evenodd;stroke:none"
       d="m 327.26302,401.70233 0.0625,-0.35157 0.29297,-0.008 -0.043,0.35938 -0.3125,0 z m 0,0"
       id="path145"
       inkscape:connector-curvature="0" />
    <path
       style="fill:#faa10c;fill-opacity:1;fill-rule:evenodd;stroke:none"
       d="m 327.22395,402.17498 0.0234,-0.35547 0.31641,-0.0117 -0.0117,0.32812 -0.32813,0.0391 z m 0,0"
       id="path147"
       inkscape:connector-curvature="0" />
    <path
       style="fill:#faa10c;fill-opacity:1;fill-rule:evenodd;stroke:none"
       d="m 327.22786,402.67108 -0.0117,-0.3711 0.33594,-0.0586 0.0117,0.35156 -0.33594,0.0781 z m 0,0"
       id="path149"
       inkscape:connector-curvature="0" />
    <path
       style="fill:#faa10c;fill-opacity:1;fill-rule:evenodd;stroke:none"
       d="m 327.23177,402.77264 0.34765,-0.0703 0.0352,0.39062 -0.34766,0.082 -0.0351,-0.40234 z m 0,0"
       id="path151"
       inkscape:connector-curvature="0" />
    <path
       style="fill:#faa10c;fill-opacity:1;fill-rule:evenodd;stroke:none"
       d="m 327.29036,403.28826 0.33203,-0.0937 0.0859,0.35938 -0.35547,0.10156 -0.0625,-0.36719 z m 0,0"
       id="path153"
       inkscape:connector-curvature="0" />
    <path
       style="fill:#faa10c;fill-opacity:1;fill-rule:evenodd;stroke:none"
       d="m 327.38802,403.78436 0.34375,-0.10547 0.10937,0.375 -0.33984,0.10937 -0.11328,-0.3789 z m 0,0"
       id="path155"
       inkscape:connector-curvature="0" />
    <path
       style="fill:#faa10c;fill-opacity:1;fill-rule:evenodd;stroke:none"
       d="m 327.52474,404.25311 0.32812,-0.0899 0.14063,0.35938 -0.33204,0.13672 -0.13671,-0.40625 z m 0,0"
       id="path157"
       inkscape:connector-curvature="0" />
    <path
       style="fill:#faa10c;fill-opacity:1;fill-rule:evenodd;stroke:none"
       d="m 327.70052,404.75311 0.3125,-0.1211 0.19531,0.36329 -0.32031,0.14453 -0.1875,-0.38672 z m 0,0"
       id="path159"
       inkscape:connector-curvature="0" />
    <path
       style="fill:#faa10c;fill-opacity:1;fill-rule:evenodd;stroke:none"
       d="m 327.93489,405.23358 0.29297,-0.1211 0.22266,0.34375 -0.31641,0.14453 -0.19922,-0.36718 z m 0,0"
       id="path161"
       inkscape:connector-curvature="0" />
    <path
       style="fill:#faa10c;fill-opacity:1;fill-rule:evenodd;stroke:none"
       d="m 328.1927,405.71405 0.3086,-0.15235 0.2539,0.34375 -0.3125,0.1836 -0.25,-0.375 z m 0,0"
       id="path163"
       inkscape:connector-curvature="0" />
    <path
       style="fill:#faa10c;fill-opacity:1;fill-rule:evenodd;stroke:none"
       d="m 328.5052,406.16326 0.29297,-0.15625 0.30469,0.34766 -0.32422,0.19141 -0.27344,-0.38282 z m 0,0"
       id="path165"
       inkscape:connector-curvature="0" />
    <path
       style="fill:#faa10c;fill-opacity:1;fill-rule:evenodd;stroke:none"
       d="m 328.87239,406.63201 0.3125,-0.17578 0.33203,0.3711 -0.32422,0.19531 -0.32031,-0.39063 z m 0,0"
       id="path167"
       inkscape:connector-curvature="0" />
    <path
       style="fill:#faa10c;fill-opacity:1;fill-rule:evenodd;stroke:none"
       d="m 329.30208,407.10858 0.29687,-0.1836 0.35157,0.32422 -0.30078,0.20703 -0.34766,-0.34765 z m 0,0"
       id="path169"
       inkscape:connector-curvature="0" />
    <path
       style="fill:#faa10c;fill-opacity:1;fill-rule:evenodd;stroke:none"
       d="m 329.77083,407.54608 0.28125,-0.20313 0.39062,0.32422 -0.26171,0.23438 -0.41016,-0.35547 z m 0,0"
       id="path171"
       inkscape:connector-curvature="0" />
    <path
       style="fill:#faa10c;fill-opacity:1;fill-rule:evenodd;stroke:none"
       d="m 330.27474,407.96795 0.23828,-0.20703 0.47265,0.3125 -0.26172,0.22266 -0.44921,-0.32813 z m 0,0"
       id="path173"
       inkscape:connector-curvature="0" />
    <path
       style="fill:#faa10c;fill-opacity:1;fill-rule:evenodd;stroke:none"
       d="m 330.86458,408.39764 0.21484,-0.21875 0.46875,0.28516 -0.22265,0.23828 -0.46094,-0.30469 z m 0,0"
       id="path175"
       inkscape:connector-curvature="0" />
    <path
       style="fill:#faa10c;fill-opacity:1;fill-rule:evenodd;stroke:none"
       d="m 331.45833,408.78826 0.21875,-0.22656 0.48437,0.25391 -0.22265,0.25781 -0.48047,-0.28516 z m 0,0"
       id="path177"
       inkscape:connector-curvature="0" />
    <path
       style="fill:#faa10c;fill-opacity:1;fill-rule:evenodd;stroke:none"
       d="m 332.10677,409.14764 0.17187,-0.23047 0.5625,0.26953 -0.16406,0.25391 -0.57031,-0.29297 z m 0,0"
       id="path179"
       inkscape:connector-curvature="0" />
    <path
       style="fill:#faa10c;fill-opacity:1;fill-rule:evenodd;stroke:none"
       d="m 332.8177,409.48748 0.15625,-0.23828 0.57032,0.23828 -0.17578,0.26172 -0.55079,-0.26172 z m 0,0"
       id="path181"
       inkscape:connector-curvature="0" />
    <path
       style="fill:#faa10c;fill-opacity:1;fill-rule:evenodd;stroke:none"
       d="m 333.52474,409.80389 0.16015,-0.25 0.57813,0.25 -0.17188,0.24609 -0.5664,-0.24609 z m 0,0"
       id="path183"
       inkscape:connector-curvature="0" />
    <path
       style="fill:#faa10c;fill-opacity:1;fill-rule:evenodd;stroke:none"
       d="m 334.30599,410.10467 0.13281,-0.27344 0.62109,0.22266 -0.15625,0.28125 -0.59765,-0.23047 z m 0,0"
       id="path185"
       inkscape:connector-curvature="0" />
    <path
       style="fill:#faa10c;fill-opacity:1;fill-rule:evenodd;stroke:none"
       d="m 335.07942,410.37811 0.11719,-0.27735 0.66016,0.1875 -0.14063,0.30469 -0.63672,-0.21484 z m 0,0"
       id="path187"
       inkscape:connector-curvature="0" />
    <path
       style="fill:#faa10c;fill-opacity:1;fill-rule:evenodd;stroke:none"
       d="m 335.90364,410.6203 0.0977,-0.28516 0.67578,0.14453 -0.11719,0.30859 -0.65625,-0.16796 z m 0,0"
       id="path189"
       inkscape:connector-curvature="0" />
    <path
       style="fill:#faa10c;fill-opacity:1;fill-rule:evenodd;stroke:none"
       d="m 336.74739,410.83123 0.0899,-0.3125 0.71093,0.13672 -0.12109,0.33594 -0.67969,-0.16016 z m 0,0"
       id="path191"
       inkscape:connector-curvature="0" />
    <path
       style="fill:#faa10c;fill-opacity:1;fill-rule:evenodd;stroke:none"
       d="m 337.63802,411.03826 0.0703,-0.32812 0.69141,0.10547 -0.0937,0.33203 -0.66797,-0.10938 z m 0,0"
       id="path193"
       inkscape:connector-curvature="0" />
    <path
       style="fill:#faa10c;fill-opacity:1;fill-rule:evenodd;stroke:none"
       d="m 338.51302,411.15936 0.0547,-0.3125 0.70313,0.082 -0.0508,0.33594 -0.70703,-0.10547 z m 0,0"
       id="path195"
       inkscape:connector-curvature="0" />
    <path
       style="fill:#faa10c;fill-opacity:1;fill-rule:evenodd;stroke:none"
       d="m 339.46224,411.27655 0.0273,-0.3125 0.67578,0.0586 -0.0234,0.3125 -0.67968,-0.0586 z m 0,0"
       id="path197"
       inkscape:connector-curvature="0" />
    <path
       style="fill:#faa10c;fill-opacity:1;fill-rule:evenodd;stroke:none"
       d="m 340.39583,411.04998 0.69531,0.0195 -0.0117,0.32032 -0.71484,-0.0274 0.0312,-0.3125 z m 0,0"
       id="path199"
       inkscape:connector-curvature="0" />
    <path
       style="fill:#faa10c;fill-opacity:1;fill-rule:evenodd;stroke:none"
       d="m 341.29427,411.39764 0,-0.31641 0.73437,0.008 0,0.32421 -0.73437,-0.0156 z m 0,0"
       id="path201"
       inkscape:connector-curvature="0" />
    <path
       style="fill:#faa10c;fill-opacity:1;fill-rule:evenodd;stroke:none"
       d="m 343.72005,393.4367 -0.41797,-0.0234 -0.0195,-0.10937 0.49219,0.0117 -0.0547,0.12109 z m 0,0"
       id="path203"
       inkscape:connector-curvature="0" />
    <path
       style="fill:#faa10c;fill-opacity:1;fill-rule:evenodd;stroke:none"
       d="m 344.32161,393.48748 -0.47266,-0.043 0.0547,-0.11718 0.46875,0.0469 -0.0508,0.11328 z m 0,0"
       id="path205"
       inkscape:connector-curvature="0" />
    <path
       style="fill:#faa10c;fill-opacity:1;fill-rule:evenodd;stroke:none"
       d="m 344.88411,393.54608 -0.45703,-0.0547 0.0547,-0.10156 0.47656,0.0469 -0.0742,0.10938 z m 0,0"
       id="path207"
       inkscape:connector-curvature="0" />
    <path
       style="fill:#faa10c;fill-opacity:1;fill-rule:evenodd;stroke:none"
       d="m 345.57552,393.6242 -0.55469,-0.0703 0.0586,-0.10547 0.39844,0.043 0.0977,0.13281 z m 0,0"
       id="path209"
       inkscape:connector-curvature="0" />
    <path
       style="fill:#faa10c;fill-opacity:1;fill-rule:evenodd;stroke:none"
       d="m 347.73177,394.05389 -0.10157,-0.13672 0.1875,0.0547 -0.0859,0.082 z m 0,0"
       id="path211"
       inkscape:connector-curvature="0" />
    <path
       style="fill:#faa10c;fill-opacity:1;fill-rule:evenodd;stroke:none"
       d="m 348.28645,394.20233 -0.42578,-0.11328 0.0899,-0.0937 0.41015,0.11328 -0.0742,0.0937 z m 0,0"
       id="path213"
       inkscape:connector-curvature="0" />
    <path
       style="fill:#faa10c;fill-opacity:1;fill-rule:evenodd;stroke:none"
       d="m 348.8763,394.38592 -0.42969,-0.14453 0.0937,-0.0898 0.44531,0.14062 -0.10937,0.0937 z m 0,0"
       id="path215"
       inkscape:connector-curvature="0" />
    <path
       style="fill:#faa10c;fill-opacity:1;fill-rule:evenodd;stroke:none"
       d="m 349.47395,394.58514 -0.46484,-0.14844 0.10547,-0.10547 0.45312,0.15625 -0.0937,0.0977 z m 0,0"
       id="path217"
       inkscape:connector-curvature="0" />
    <path
       style="fill:#faa10c;fill-opacity:1;fill-rule:evenodd;stroke:none"
       d="m 350.07942,394.80389 -0.45703,-0.17188 0.0899,-0.10156 0.45703,0.1836 -0.0899,0.0898 z m 0,0"
       id="path219"
       inkscape:connector-curvature="0" />
    <path
       style="fill:#faa10c;fill-opacity:1;fill-rule:evenodd;stroke:none"
       d="m 350.59114,395.01483 -0.37109,-0.15625 0.082,-0.10547 0.38672,0.17969 -0.0977,0.082 z m 0,0"
       id="path221"
       inkscape:connector-curvature="0" />
    <path
       style="fill:#faa10c;fill-opacity:1;fill-rule:evenodd;stroke:none"
       d="m 351.14583,395.26873 -0.40625,-0.18359 0.0937,-0.0977 0.42969,0.19532 -0.11719,0.0859 z m 0,0"
       id="path223"
       inkscape:connector-curvature="0" />
    <path
       style="fill:#faa10c;fill-opacity:1;fill-rule:evenodd;stroke:none"
       d="m 351.65364,395.53045 -0.3789,-0.20703 0.11328,-0.0898 0.39062,0.21093 -0.125,0.0859 z m 0,0"
       id="path225"
       inkscape:connector-curvature="0" />
    <path
       style="fill:#faa10c;fill-opacity:1;fill-rule:evenodd;stroke:none"
       d="m 352.14974,395.79608 -0.36719,-0.20313 0.13672,-0.0781 0.35937,0.19922 -0.1289,0.082 z m 0,0"
       id="path227"
       inkscape:connector-curvature="0" />
    <path
       style="fill:#faa10c;fill-opacity:1;fill-rule:evenodd;stroke:none"
       d="m 352.66927,396.10858 -0.39453,-0.24219 0.16796,-0.0781 0.375,0.22657 -0.14843,0.0937 z m 0,0"
       id="path229"
       inkscape:connector-curvature="0" />
    <path
       style="fill:#faa10c;fill-opacity:1;fill-rule:evenodd;stroke:none"
       d="m 353.13411,396.40155 -0.35547,-0.23438 0.14844,-0.082 0.35547,0.25391 -0.14844,0.0625 z m 0,0"
       id="path231"
       inkscape:connector-curvature="0" />
    <path
       style="fill:#faa10c;fill-opacity:1;fill-rule:evenodd;stroke:none"
       d="m 353.57942,396.73358 -0.33203,-0.24219 0.14844,-0.0703 0.33984,0.23047 -0.15625,0.082 z m 0,0"
       id="path233"
       inkscape:connector-curvature="0" />
    <path
       style="fill:#faa10c;fill-opacity:1;fill-rule:evenodd;stroke:none"
       d="m 354.03255,397.09686 -0.33985,-0.27735 0.14844,-0.0859 0.34766,0.27343 -0.15625,0.0899 z m 0,0"
       id="path235"
       inkscape:connector-curvature="0" />
    <path
       style="fill:#faa10c;fill-opacity:1;fill-rule:evenodd;stroke:none"
       d="m 354.39974,397.42889 -0.27735,-0.25781 0.15625,-0.0742 0.32031,0.26172 -0.19921,0.0703 z m 0,0"
       id="path237"
       inkscape:connector-curvature="0" />
    <path
       style="fill:#faa10c;fill-opacity:1;fill-rule:evenodd;stroke:none"
       d="m 354.79036,397.8078 -0.27734,-0.30079 0.16406,-0.0586 0.30469,0.29688 -0.19141,0.0625 z m 0,0"
       id="path239"
       inkscape:connector-curvature="0" />
    <path
       style="fill:#faa10c;fill-opacity:1;fill-rule:evenodd;stroke:none"
       d="m 355.15364,398.19451 -0.28515,-0.30468 0.18359,-0.0625 0.30078,0.3125 -0.19922,0.0547 z m 0,0"
       id="path241"
       inkscape:connector-curvature="0" />
    <path
       style="fill:#faa10c;fill-opacity:1;fill-rule:evenodd;stroke:none"
       d="m 355.4427,398.58905 -0.23437,-0.30079 0.21094,-0.0508 0.27343,0.3086 -0.25,0.043 z m 0,0"
       id="path243"
       inkscape:connector-curvature="0" />
    <path
       style="fill:#faa10c;fill-opacity:1;fill-rule:evenodd;stroke:none"
       d="m 355.72395,398.97576 -0.21093,-0.29687 0.23828,-0.0469 0.21094,0.3086 -0.23829,0.0351 z m 0,0"
       id="path245"
       inkscape:connector-curvature="0" />
    <path
       style="fill:#faa10c;fill-opacity:1;fill-rule:evenodd;stroke:none"
       d="m 355.99739,399.40155 -0.19531,-0.32422 0.23828,-0.0312 0.21875,0.33984 -0.26172,0.0156 z m 0,0"
       id="path247"
       inkscape:connector-curvature="0" />
    <path
       style="fill:#faa10c;fill-opacity:1;fill-rule:evenodd;stroke:none"
       d="m 356.20052,399.83514 -0.16016,-0.32813 0.26172,-0.0156 0.19531,0.32422 -0.29687,0.0195 z m 0,0"
       id="path249"
       inkscape:connector-curvature="0" />
    <path
       style="fill:#faa10c;fill-opacity:1;fill-rule:evenodd;stroke:none"
       d="m 356.39192,400.28826 -0.13281,-0.34375 0.27344,-0.0156 0.16797,0.35937 -0.3086,0 z m 0,0"
       id="path251"
       inkscape:connector-curvature="0" />
    <path
       style="fill:#faa10c;fill-opacity:1;fill-rule:evenodd;stroke:none"
       d="m 356.5638,400.76873 -0.13672,-0.36718 0.30469,-0.004 0.14453,0.44922 -0.3125,-0.0781 z m 0,0"
       id="path253"
       inkscape:connector-curvature="0" />
    <path
       style="fill:#faa10c;fill-opacity:1;fill-rule:evenodd;stroke:none"
       d="m 356.74349,402.17498 0.0117,-0.40234 0.28907,0.0781 0.0273,0.36329 -0.32812,-0.0391 z m 0,0"
       id="path255"
       inkscape:connector-curvature="0" />
    <path
       style="fill:#faa10c;fill-opacity:1;fill-rule:evenodd;stroke:none"
       d="m 356.74349,402.63983 0.0156,-0.34375 0.31641,0.0391 -0.008,0.36719 -0.32421,-0.0625 z m 0,0"
       id="path257"
       inkscape:connector-curvature="0" />
    <path
       style="fill:#faa10c;fill-opacity:1;fill-rule:evenodd;stroke:none"
       d="m 357.02864,403.20233 -0.34765,-0.0781 0.0508,-0.36328 0.32812,0.0469 -0.0312,0.39453 z m 0,0"
       id="path259"
       inkscape:connector-curvature="0" />
    <path
       style="fill:#faa10c;fill-opacity:1;fill-rule:evenodd;stroke:none"
       d="m 352.32552,409.00701 -0.21875,-0.25781 0.48437,-0.25781 0.21094,0.23047 -0.47656,0.28515 z m 0,0"
       id="path261"
       inkscape:connector-curvature="0" />
    <path
       style="fill:#faa10c;fill-opacity:1;fill-rule:evenodd;stroke:none"
       d="m 351.58724,409.3703 -0.17188,-0.25391 0.56641,-0.26563 0.17968,0.22657 -0.57421,0.29297 z m 0,0"
       id="path263"
       inkscape:connector-curvature="0" />
    <path
       style="fill:#faa10c;fill-opacity:1;fill-rule:evenodd;stroke:none"
       d="m 350.88802,409.67498 -0.17578,-0.25 0.57812,-0.23828 0.15625,0.23828 -0.55859,0.25 z m 0,0"
       id="path265"
       inkscape:connector-curvature="0" />
    <path
       style="fill:#faa10c;fill-opacity:1;fill-rule:evenodd;stroke:none"
       d="m 350.16145,409.98358 -0.16406,-0.25 0.57422,-0.2461 0.16016,0.2461 -0.57032,0.25 z m 0,0"
       id="path267"
       inkscape:connector-curvature="0" />
    <path
       style="fill:#faa10c;fill-opacity:1;fill-rule:evenodd;stroke:none"
       d="m 349.40364,410.28826 -0.15625,-0.27734 0.625,-0.21875 0.13672,0.26953 -0.60547,0.22656 z m 0,0"
       id="path269"
       inkscape:connector-curvature="0" />
    <path
       style="fill:#faa10c;fill-opacity:1;fill-rule:evenodd;stroke:none"
       d="m 348.55599,410.54608 -0.14844,-0.28907 0.66797,-0.1875 0.11718,0.27344 -0.63671,0.20313 z m 0,0"
       id="path271"
       inkscape:connector-curvature="0" />
    <path
       style="fill:#faa10c;fill-opacity:1;fill-rule:evenodd;stroke:none"
       d="m 347.6927,410.79608 -0.0898,-0.30469 0.66406,-0.17969 0.0977,0.28516 -0.67188,0.19922 z m 0,0"
       id="path273"
       inkscape:connector-curvature="0" />
    <path
       style="fill:#faa10c;fill-opacity:1;fill-rule:evenodd;stroke:none"
       d="m 346.80989,411.02264 -0.125,-0.34375 0.71875,-0.13281 0.0859,0.30859 -0.67969,0.16797 z m 0,0"
       id="path275"
       inkscape:connector-curvature="0" />
    <path
       style="fill:#faa10c;fill-opacity:1;fill-rule:evenodd;stroke:none"
       d="m 345.9427,411.17108 -0.10156,-0.32813 0.69531,-0.10547 0.0742,0.3125 -0.66797,0.1211 z m 0,0"
       id="path277"
       inkscape:connector-curvature="0" />
    <path
       style="fill:#faa10c;fill-opacity:1;fill-rule:evenodd;stroke:none"
       d="m 345.0052,411.28436 -0.0586,-0.32422 0.71484,-0.0859 0.0508,0.30469 -0.70704,0.10547 z m 0,0"
       id="path279"
       inkscape:connector-curvature="0" />
    <path
       style="fill:#faa10c;fill-opacity:1;fill-rule:evenodd;stroke:none"
       d="m 344.07552,411.36248 -0.0234,-0.3125 0.68359,-0.0664 0.0274,0.3125 -0.6875,0.0664 z m 0,0"
       id="path281"
       inkscape:connector-curvature="0" />
    <path
       style="fill:#faa10c;fill-opacity:1;fill-rule:evenodd;stroke:none"
       d="m 343.85286,411.38983 -0.71875,0.0234 -0.008,-0.32031 0.69922,-0.0234 0.0273,0.32032 z m 0,0"
       id="path283"
       inkscape:connector-curvature="0" />
    <path
       style="fill:#faa10c;fill-opacity:1;fill-rule:evenodd;stroke:none"
       d="m 342.1888,411.4328 0,-0.31641 0.72656,-0.0156 0,0.31641 -0.72656,0.0156 z m 0,0"
       id="path285"
       inkscape:connector-curvature="0" />
    <path
       style="fill:#faa10c;fill-opacity:1;fill-rule:evenodd;stroke:none"
       d="m 352.95052,408.63201 -0.24219,-0.21875 0.17187,-0.13281 0.27344,0.17969 -0.20312,0.17187 z m 0,0"
       id="path287"
       inkscape:connector-curvature="0" />
    <path
       style="fill:#faa10c;fill-opacity:1;fill-rule:evenodd;stroke:none"
       d="m 355.11458,406.82342 0.30469,-0.40625 -0.28125,-0.10547 -0.23047,0.25 0.20703,0.26172 z m 0,0"
       id="path289"
       inkscape:connector-curvature="0" />
    <path
       style="fill:#faa10c;fill-opacity:1;fill-rule:evenodd;stroke:none"
       d="m 355.04036,406.89764 -0.22266,-0.24609 -0.28906,0.28906 0.39453,0.0976 0.11719,-0.14062 z m 0,0"
       id="path291"
       inkscape:connector-curvature="0" />
  </g>
</svg>
