<?xml version="1.0" encoding="utf-8"?>
<!-- Generator: Adobe Illustrator 19.1.0, SVG Export Plug-In . SVG Version: 6.00 Build 0)  -->
<svg version="1.1" id="Layer_1" xmlns="http://www.w3.org/2000/svg" xmlns:xlink="http://www.w3.org/1999/xlink" x="0px" y="0px"
	 viewBox="0 0 77.5 59.3" style="enable-background:new 0 0 77.5 59.3;" xml:space="preserve">
<style type="text/css">
	.st0{fill:#FFFFFF;}
</style>
<path class="st0" d="M1.3,58.2c-0.9-5.5,0-10,2.7-13.1c2.4-2.8,6.1-4.2,10.8-4.2c0.1,0,0.2,0,0.3,0c7.7,0.1,11.1,3.9,14.1,7.3
	c2.3,2.5,4.2,4.7,7.6,5.1c2.5,0.3,4.3-0.2,5.6-1.4c2.4-2.4,2-6.8,2-6.8l0-0.1v-12h-12c-1.7,0-3.2-1.4-3.2-3.2V19.2
	c0-1.7,1.4-3.2,3.2-3.2h12V4c0-1.7,1.4-3.2,3.2-3.2h10.4c1.7,0,3.2,1.4,3.2,3.2v12h12c1.7,0,3.2,1.4,3.2,3.2v10.4
	c0,1.7-1.4,3.2-3.2,3.2h-12v12h-2.3V30.5h14.3c0.5,0,0.8-0.4,0.8-0.8V19.2c0-0.5-0.4-0.8-0.8-0.8H58.9V4c0-0.5-0.4-0.8-0.8-0.8H47.6
	c-0.5,0-0.8,0.4-0.8,0.8v14.3H32.5c-0.5,0-0.8,0.4-0.8,0.8v10.4c0,0.5,0.4,0.8,0.8,0.8h14.3v14.3c0.1,0.7,0.4,5.6-2.6,8.7
	c-1.8,1.8-4.3,2.5-7.5,2.1c-4.3-0.5-6.7-3.2-9.1-5.8c-2.8-3.2-5.7-6.6-12.4-7.2c-4.2-0.4-8.8,1.3-10.8,3.6c-2.2,2.6-3.6,7-2.8,11.7
	L1.3,58.2z"/>
</svg>
