<?xml version="1.0" encoding="utf-8"?>
<!-- Generator: Adobe Illustrator 19.1.0, SVG Export Plug-In . SVG Version: 6.00 Build 0)  -->
<svg version="1.1" id="Layer_1" xmlns="http://www.w3.org/2000/svg" xmlns:xlink="http://www.w3.org/1999/xlink" x="0px" y="0px"
	 viewBox="0 0 221 1615" style="enable-background:new 0 0 221 1615;" xml:space="preserve">
<style type="text/css">
	.st0{fill:none;stroke:#FFFFFF;stroke-miterlimit:10;}
</style>
<g>
	<line class="st0" x1="38.5" y1="108.3" x2="182.5" y2="108.3"/>
	<line class="st0" x1="48.5" y1="208.3" x2="172.5" y2="208.3"/>
	<line class="st0" x1="58.5" y1="308.3" x2="162.5" y2="308.3"/>
	<line class="st0" x1="68.5" y1="408.3" x2="152.5" y2="408.3"/>
	<line class="st0" x1="78.5" y1="508.3" x2="142.5" y2="508.3"/>
	<line class="st0" x1="88.5" y1="608.3" x2="132.5" y2="608.3"/>
	<line class="st0" x1="93.5" y1="708.3" x2="127.5" y2="708.3"/>
	<line class="st0" x1="98.5" y1="808.3" x2="122.5" y2="808.3"/>
	<line class="st0" x1="93.5" y1="908.3" x2="127.5" y2="908.3"/>
	<line class="st0" x1="88.5" y1="1008.3" x2="132.5" y2="1008.3"/>
	<line class="st0" x1="78.5" y1="1108.3" x2="142.5" y2="1108.3"/>
	<line class="st0" x1="68.5" y1="1208.3" x2="152.5" y2="1208.3"/>
	<line class="st0" x1="58.5" y1="1308.3" x2="162.5" y2="1308.3"/>
	<line class="st0" x1="48.5" y1="1408.3" x2="172.5" y2="1408.3"/>
	<line class="st0" x1="38.5" y1="1508.3" x2="182.5" y2="1508.3"/>
</g>
</svg>
