<?xml version="1.0" encoding="utf-8"?>
<!-- Generator: Adobe Illustrator 19.1.0, SVG Export Plug-In . SVG Version: 6.00 Build 0)  -->
<svg version="1.1" id="Layer_1" xmlns="http://www.w3.org/2000/svg" xmlns:xlink="http://www.w3.org/1999/xlink" x="0px" y="0px"
	 viewBox="0 0 65 65" style="enable-background:new 0 0 65 65;" xml:space="preserve">
<style type="text/css">
	.st0{fill:#FFFFFF;}
	.st1{opacity:0.3;}
</style>
<g>
	<path class="st0" d="M37.9,53.4h-3.3v-3.3c0-0.9-0.7-1.7-1.7-1.7h-0.8c-0.9,0-1.7,0.7-1.7,1.7v3.3h-3.3c-0.9,0-1.6,0.7-1.7,1.5H9.7
		v1.5h15.7v0.1c0,0.9,0.7,1.7,1.7,1.7h10.8c0.9,0,1.7-0.7,1.7-1.7v-0.1h15.7v-1.5H39.6C39.5,54.1,38.8,53.4,37.9,53.4z"/>
	<g>
		<g>
			<path class="st0" d="M46.9,36.4v6.7H18.1v-6.7H46.9 M48.2,34.1H16.8c-0.6,0-1,0.5-1,1v9.3c0,0.6,0.5,1,1,1h31.4c0.6,0,1-0.5,1-1
				v-9.3C49.2,34.5,48.7,34.1,48.2,34.1L48.2,34.1z"/>
		</g>
		<g>
			<polygon class="st0" points="32.5,38.5 20.7,38.5 20.7,41 32.5,41 32.5,38.5 			"/>
		</g>
	</g>
	<g class="st1">
		<g>
			<path class="st0" d="M46.9,23.5v6.7H18.1v-6.7H46.9 M48.2,21.2H16.8c-0.6,0-1,0.5-1,1v9.3c0,0.6,0.5,1,1,1h31.4c0.6,0,1-0.5,1-1
				v-9.3C49.2,21.6,48.7,21.2,48.2,21.2L48.2,21.2z"/>
		</g>
		<g>
			<polygon class="st0" points="32.5,25.6 20.7,25.6 20.7,28.1 32.5,28.1 32.5,25.6 			"/>
		</g>
	</g>
	<g class="st1">
		<g>
			<path class="st0" d="M46.9,9.2v6.7H18.1V9.2H46.9 M48.2,6.9H16.8c-0.6,0-1,0.5-1,1v9.3c0,0.6,0.5,1,1,1h31.4c0.6,0,1-0.5,1-1V7.9
				C49.2,7.3,48.7,6.9,48.2,6.9L48.2,6.9z"/>
		</g>
		<g>
			<polygon class="st0" points="32.5,11.2 20.7,11.2 20.7,13.8 32.5,13.8 32.5,11.2 			"/>
		</g>
	</g>
	<polygon class="st0" points="54.8,16.8 50.3,16.8 50.3,12.2 45.2,12.2 45.2,16.8 40.6,16.8 40.6,21.9 45.2,21.9 45.2,26.4 
		50.3,26.4 50.3,21.9 54.8,21.9 	"/>
</g>
</svg>
