<?xml version="1.0" encoding="utf-8"?>
<!-- Generator: Adobe Illustrator 19.1.0, SVG Export Plug-In . SVG Version: 6.00 Build 0)  -->
<svg version="1.1" id="Layer_1" xmlns="http://www.w3.org/2000/svg" xmlns:xlink="http://www.w3.org/1999/xlink" x="0px" y="0px"
	 viewBox="0 0 221 1615" style="enable-background:new 0 0 221 1615;" xml:space="preserve">
<style type="text/css">
	.st0{fill:none;stroke:#FFFFFF;stroke-width:0.5;stroke-miterlimit:10;}
</style>
<g>
	<line class="st0" x1="106.2" y1="18.3" x2="114.8" y2="18.3"/>
	<line class="st0" x1="106.2" y1="28.3" x2="114.8" y2="28.3"/>
	<line class="st0" x1="106.2" y1="38.3" x2="114.8" y2="38.3"/>
	<line class="st0" x1="106.2" y1="48.3" x2="114.8" y2="48.3"/>
	<line class="st0" x1="106.2" y1="58.3" x2="114.8" y2="58.3"/>
	<line class="st0" x1="106.2" y1="68.3" x2="114.8" y2="68.3"/>
	<line class="st0" x1="106.2" y1="78.3" x2="114.8" y2="78.3"/>
	<line class="st0" x1="106.2" y1="88.3" x2="114.8" y2="88.3"/>
	<line class="st0" x1="106.2" y1="98.3" x2="114.8" y2="98.3"/>
	<line class="st0" x1="106.2" y1="108.3" x2="114.8" y2="108.3"/>
	<line class="st0" x1="106.2" y1="118.3" x2="114.8" y2="118.3"/>
	<line class="st0" x1="106.2" y1="128.3" x2="114.8" y2="128.3"/>
	<line class="st0" x1="106.2" y1="138.3" x2="114.8" y2="138.3"/>
	<line class="st0" x1="106.2" y1="148.3" x2="114.8" y2="148.3"/>
	<line class="st0" x1="106.2" y1="158.3" x2="114.8" y2="158.3"/>
	<line class="st0" x1="106.2" y1="168.3" x2="114.8" y2="168.3"/>
	<line class="st0" x1="106.2" y1="178.3" x2="114.8" y2="178.3"/>
	<line class="st0" x1="106.2" y1="188.3" x2="114.8" y2="188.3"/>
	<line class="st0" x1="106.2" y1="198.3" x2="114.8" y2="198.3"/>
	<line class="st0" x1="106.2" y1="208.3" x2="114.8" y2="208.3"/>
	<line class="st0" x1="106.2" y1="218.3" x2="114.8" y2="218.3"/>
	<line class="st0" x1="106.2" y1="228.3" x2="114.8" y2="228.3"/>
	<line class="st0" x1="106.2" y1="238.3" x2="114.8" y2="238.3"/>
	<line class="st0" x1="106.2" y1="248.3" x2="114.8" y2="248.3"/>
	<line class="st0" x1="106.2" y1="258.3" x2="114.8" y2="258.3"/>
	<line class="st0" x1="106.2" y1="268.3" x2="114.8" y2="268.3"/>
	<line class="st0" x1="106.2" y1="278.3" x2="114.8" y2="278.3"/>
	<line class="st0" x1="106.2" y1="288.3" x2="114.8" y2="288.3"/>
	<line class="st0" x1="106.2" y1="298.3" x2="114.8" y2="298.3"/>
	<line class="st0" x1="106.2" y1="308.3" x2="114.8" y2="308.3"/>
	<line class="st0" x1="106.2" y1="318.3" x2="114.8" y2="318.3"/>
	<line class="st0" x1="106.2" y1="328.3" x2="114.8" y2="328.3"/>
	<line class="st0" x1="106.2" y1="338.3" x2="114.8" y2="338.3"/>
	<line class="st0" x1="106.2" y1="348.3" x2="114.8" y2="348.3"/>
	<line class="st0" x1="106.2" y1="358.3" x2="114.8" y2="358.3"/>
	<line class="st0" x1="106.2" y1="368.3" x2="114.8" y2="368.3"/>
	<line class="st0" x1="106.2" y1="378.3" x2="114.8" y2="378.3"/>
	<line class="st0" x1="106.2" y1="388.3" x2="114.8" y2="388.3"/>
	<line class="st0" x1="106.2" y1="398.3" x2="114.8" y2="398.3"/>
	<line class="st0" x1="106.2" y1="408.3" x2="114.8" y2="408.3"/>
	<line class="st0" x1="106.2" y1="418.3" x2="114.8" y2="418.3"/>
	<line class="st0" x1="106.2" y1="428.3" x2="114.8" y2="428.3"/>
	<line class="st0" x1="106.2" y1="438.3" x2="114.8" y2="438.3"/>
	<line class="st0" x1="106.2" y1="448.3" x2="114.8" y2="448.3"/>
	<line class="st0" x1="106.2" y1="458.3" x2="114.8" y2="458.3"/>
	<line class="st0" x1="106.2" y1="468.3" x2="114.8" y2="468.3"/>
	<line class="st0" x1="106.2" y1="478.3" x2="114.8" y2="478.3"/>
	<line class="st0" x1="106.2" y1="488.3" x2="114.8" y2="488.3"/>
	<line class="st0" x1="106.2" y1="498.3" x2="114.8" y2="498.3"/>
	<line class="st0" x1="106.2" y1="508.3" x2="114.8" y2="508.3"/>
	<line class="st0" x1="106.2" y1="518.3" x2="114.8" y2="518.3"/>
	<line class="st0" x1="106.2" y1="528.3" x2="114.8" y2="528.3"/>
	<line class="st0" x1="106.2" y1="538.3" x2="114.8" y2="538.3"/>
	<line class="st0" x1="106.2" y1="548.3" x2="114.8" y2="548.3"/>
	<line class="st0" x1="106.2" y1="558.3" x2="114.8" y2="558.3"/>
	<line class="st0" x1="106.2" y1="568.3" x2="114.8" y2="568.3"/>
	<line class="st0" x1="106.2" y1="578.3" x2="114.8" y2="578.3"/>
	<line class="st0" x1="106.2" y1="588.3" x2="114.8" y2="588.3"/>
	<line class="st0" x1="106.2" y1="598.3" x2="114.8" y2="598.3"/>
	<line class="st0" x1="106.2" y1="608.3" x2="114.8" y2="608.3"/>
	<line class="st0" x1="106.2" y1="618.3" x2="114.8" y2="618.3"/>
	<line class="st0" x1="106.2" y1="628.3" x2="114.8" y2="628.3"/>
	<line class="st0" x1="106.2" y1="638.3" x2="114.8" y2="638.3"/>
	<line class="st0" x1="106.2" y1="648.3" x2="114.8" y2="648.3"/>
	<line class="st0" x1="106.2" y1="658.3" x2="114.8" y2="658.3"/>
	<line class="st0" x1="106.2" y1="668.3" x2="114.8" y2="668.3"/>
	<line class="st0" x1="106.2" y1="678.3" x2="114.8" y2="678.3"/>
	<line class="st0" x1="106.2" y1="688.3" x2="114.8" y2="688.3"/>
	<line class="st0" x1="106.2" y1="698.3" x2="114.8" y2="698.3"/>
	<line class="st0" x1="106.2" y1="708.3" x2="114.8" y2="708.3"/>
	<line class="st0" x1="106.2" y1="718.3" x2="114.8" y2="718.3"/>
	<line class="st0" x1="106.2" y1="728.3" x2="114.8" y2="728.3"/>
	<line class="st0" x1="106.2" y1="738.3" x2="114.8" y2="738.3"/>
	<line class="st0" x1="106.2" y1="748.3" x2="114.8" y2="748.3"/>
	<line class="st0" x1="106.2" y1="758.3" x2="114.8" y2="758.3"/>
	<line class="st0" x1="106.2" y1="768.3" x2="114.8" y2="768.3"/>
	<line class="st0" x1="106.2" y1="778.3" x2="114.8" y2="778.3"/>
	<line class="st0" x1="106.2" y1="788.3" x2="114.8" y2="788.3"/>
	<line class="st0" x1="106.2" y1="798.3" x2="114.8" y2="798.3"/>
	<line class="st0" x1="106.2" y1="808.3" x2="114.8" y2="808.3"/>
	<line class="st0" x1="106.2" y1="818.3" x2="114.8" y2="818.3"/>
	<line class="st0" x1="106.2" y1="828.3" x2="114.8" y2="828.3"/>
	<line class="st0" x1="106.2" y1="838.3" x2="114.8" y2="838.3"/>
	<line class="st0" x1="106.2" y1="848.3" x2="114.8" y2="848.3"/>
	<line class="st0" x1="106.2" y1="858.3" x2="114.8" y2="858.3"/>
	<line class="st0" x1="106.2" y1="868.3" x2="114.8" y2="868.3"/>
	<line class="st0" x1="106.2" y1="878.3" x2="114.8" y2="878.3"/>
	<line class="st0" x1="106.2" y1="888.3" x2="114.8" y2="888.3"/>
	<line class="st0" x1="106.2" y1="898.3" x2="114.8" y2="898.3"/>
	<line class="st0" x1="106.2" y1="908.3" x2="114.8" y2="908.3"/>
	<line class="st0" x1="106.2" y1="918.3" x2="114.8" y2="918.3"/>
	<line class="st0" x1="106.2" y1="928.3" x2="114.8" y2="928.3"/>
	<line class="st0" x1="106.2" y1="938.3" x2="114.8" y2="938.3"/>
	<line class="st0" x1="106.2" y1="948.3" x2="114.8" y2="948.3"/>
	<line class="st0" x1="106.2" y1="958.3" x2="114.8" y2="958.3"/>
	<line class="st0" x1="106.2" y1="968.3" x2="114.8" y2="968.3"/>
	<line class="st0" x1="106.2" y1="978.3" x2="114.8" y2="978.3"/>
	<line class="st0" x1="106.2" y1="988.3" x2="114.8" y2="988.3"/>
	<line class="st0" x1="106.2" y1="998.3" x2="114.8" y2="998.3"/>
	<line class="st0" x1="106.2" y1="1008.3" x2="114.8" y2="1008.3"/>
	<line class="st0" x1="106.2" y1="1018.3" x2="114.8" y2="1018.3"/>
	<line class="st0" x1="106.2" y1="1028.3" x2="114.8" y2="1028.3"/>
	<line class="st0" x1="106.2" y1="1038.3" x2="114.8" y2="1038.3"/>
	<line class="st0" x1="106.2" y1="1048.3" x2="114.8" y2="1048.3"/>
	<line class="st0" x1="106.2" y1="1058.3" x2="114.8" y2="1058.3"/>
	<line class="st0" x1="106.2" y1="1068.3" x2="114.8" y2="1068.3"/>
	<line class="st0" x1="106.2" y1="1078.3" x2="114.8" y2="1078.3"/>
	<line class="st0" x1="106.2" y1="1088.3" x2="114.8" y2="1088.3"/>
	<line class="st0" x1="106.2" y1="1098.3" x2="114.8" y2="1098.3"/>
	<line class="st0" x1="106.2" y1="1108.3" x2="114.8" y2="1108.3"/>
	<line class="st0" x1="106.2" y1="1118.3" x2="114.8" y2="1118.3"/>
	<line class="st0" x1="106.2" y1="1128.3" x2="114.8" y2="1128.3"/>
	<line class="st0" x1="106.2" y1="1138.3" x2="114.8" y2="1138.3"/>
	<line class="st0" x1="106.2" y1="1148.3" x2="114.8" y2="1148.3"/>
	<line class="st0" x1="106.2" y1="1158.3" x2="114.8" y2="1158.3"/>
	<line class="st0" x1="106.2" y1="1168.3" x2="114.8" y2="1168.3"/>
	<line class="st0" x1="106.2" y1="1178.3" x2="114.8" y2="1178.3"/>
	<line class="st0" x1="106.2" y1="1188.3" x2="114.8" y2="1188.3"/>
	<line class="st0" x1="106.2" y1="1198.3" x2="114.8" y2="1198.3"/>
	<line class="st0" x1="106.2" y1="1208.3" x2="114.8" y2="1208.3"/>
	<line class="st0" x1="106.2" y1="1218.3" x2="114.8" y2="1218.3"/>
	<line class="st0" x1="106.2" y1="1228.3" x2="114.8" y2="1228.3"/>
	<line class="st0" x1="106.2" y1="1238.3" x2="114.8" y2="1238.3"/>
	<line class="st0" x1="106.2" y1="1248.3" x2="114.8" y2="1248.3"/>
	<line class="st0" x1="106.2" y1="1258.3" x2="114.8" y2="1258.3"/>
	<line class="st0" x1="106.2" y1="1268.3" x2="114.8" y2="1268.3"/>
	<line class="st0" x1="106.2" y1="1278.3" x2="114.8" y2="1278.3"/>
	<line class="st0" x1="106.2" y1="1288.3" x2="114.8" y2="1288.3"/>
	<line class="st0" x1="106.2" y1="1298.3" x2="114.8" y2="1298.3"/>
	<line class="st0" x1="106.2" y1="1308.3" x2="114.8" y2="1308.3"/>
	<line class="st0" x1="106.2" y1="1318.3" x2="114.8" y2="1318.3"/>
	<line class="st0" x1="106.2" y1="1328.3" x2="114.8" y2="1328.3"/>
	<line class="st0" x1="106.2" y1="1338.3" x2="114.8" y2="1338.3"/>
	<line class="st0" x1="106.2" y1="1348.3" x2="114.8" y2="1348.3"/>
	<line class="st0" x1="106.2" y1="1358.3" x2="114.8" y2="1358.3"/>
	<line class="st0" x1="106.2" y1="1368.3" x2="114.8" y2="1368.3"/>
	<line class="st0" x1="106.2" y1="1378.3" x2="114.8" y2="1378.3"/>
	<line class="st0" x1="106.2" y1="1388.3" x2="114.8" y2="1388.3"/>
	<line class="st0" x1="106.2" y1="1398.3" x2="114.8" y2="1398.3"/>
	<line class="st0" x1="106.2" y1="1408.3" x2="114.8" y2="1408.3"/>
	<line class="st0" x1="106.2" y1="1418.3" x2="114.8" y2="1418.3"/>
	<line class="st0" x1="106.2" y1="1428.3" x2="114.8" y2="1428.3"/>
	<line class="st0" x1="106.2" y1="1438.3" x2="114.8" y2="1438.3"/>
	<line class="st0" x1="106.2" y1="1448.3" x2="114.8" y2="1448.3"/>
	<line class="st0" x1="106.2" y1="1458.3" x2="114.8" y2="1458.3"/>
	<line class="st0" x1="106.2" y1="1468.3" x2="114.8" y2="1468.3"/>
	<line class="st0" x1="106.2" y1="1478.3" x2="114.8" y2="1478.3"/>
	<line class="st0" x1="106.2" y1="1488.3" x2="114.8" y2="1488.3"/>
	<line class="st0" x1="106.2" y1="1498.3" x2="114.8" y2="1498.3"/>
	<line class="st0" x1="106.2" y1="1508.3" x2="114.8" y2="1508.3"/>
	<line class="st0" x1="106.2" y1="1518.3" x2="114.8" y2="1518.3"/>
	<line class="st0" x1="106.2" y1="1528.3" x2="114.8" y2="1528.3"/>
	<line class="st0" x1="106.2" y1="1538.3" x2="114.8" y2="1538.3"/>
	<line class="st0" x1="106.2" y1="1548.3" x2="114.8" y2="1548.3"/>
	<line class="st0" x1="106.2" y1="1558.3" x2="114.8" y2="1558.3"/>
	<line class="st0" x1="106.2" y1="1568.3" x2="114.8" y2="1568.3"/>
	<line class="st0" x1="106.2" y1="1578.3" x2="114.8" y2="1578.3"/>
	<line class="st0" x1="106.2" y1="1588.3" x2="114.8" y2="1588.3"/>
	<line class="st0" x1="106.2" y1="1598.3" x2="114.8" y2="1598.3"/>
</g>
</svg>
