<svg xmlns="http://www.w3.org/2000/svg" xmlns:xlink="http://www.w3.org/1999/xlink" viewBox="0 0 129 40"><defs><path id="a" d="M0 .362h128.749v28.4H0z"/><path id="c" d="M.828.284H6.23V8H.828z"/></defs><g fill="none" fill-rule="evenodd"><path fill="#FFF" d="M33.26 17.255a7.136 7.136 0 01-4.052 3.701 7.078 7.078 0 01-5.476-.248c-1.714-.81-3.008-2.225-3.633-4l-.012-.024a7.105 7.105 0 01.186-5.464 7.191 7.191 0 014.091-3.785c3.691-1.309 7.781.597 9.1 4.263.68 1.846.607 3.814-.205 5.557m3.04-6.593c-1.88-5.206-7.699-7.934-12.965-6.06-2.61.97-4.669 2.87-5.803 5.36a10.094 10.094 0 00-.922 4.206c0 1.193.22 2.398.651 3.557a9.977 9.977 0 005.185 5.714 10.056 10.056 0 007.792.353 10.106 10.106 0 005.758-5.265c1.15-2.48 1.26-5.269.304-7.865"/><path fill="#FFF" d="M17.263 17.736c-.003-.001-.003-.006-.003-.011-.004-.002-.004-.004-.006-.01l.01.02zM94.697 21.8l2.723-.858.142-13.913h-2.725l.143 10.754-6.882-11.188-2.44.862-.142 14.057h2.723l-.283-10.761h.142zM47.36 13.479h-1.576v-4.3h1.576c1.324-.031 2.411.688 2.44 2.011-.029 1.944-1.62 2.302-2.44 2.289m5.31-2.289c-.068-2.306-1.49-4.19-5.022-4.161h-4.59l-.142 14.485h2.726v-5.88h.857c.447.056.763.203 1.008.574l4.014 5.592 2.727-1.002-4.449-5.881c1.694-.566 2.803-1.886 2.87-3.727m58.233 4.3h-3.587l1.865-5.736 1.722 5.736zm-8.462 5.452l2.436.859 1.725-4.16h5.02l1.434 4.16 2.58-.86-5.163-13.913h-2.439l-5.593 13.914zm-33.995-6.886c-.065 3.29-2.18 5.107-5.306 5.163h-1.721V9.323h2.294c2.802-.042 4.668 2.046 4.733 4.733zM58.838 7.03l-.145 14.485h5.019c3.81-.046 7.477-2.976 7.457-7.313.02-4.379-3.02-7.228-7.598-7.172h-4.733zm20.51 14.484l.142-14.485h-2.725l-.141 14.485z"/><g transform="translate(0 -.362)"><mask id="b" fill="#fff"><use xlink:href="#a"/></mask><path fill="#F58220" d="M54.249 21.16l-2.727 1.002-4.014-5.593c-.245-.37-.561-.517-1.01-.573h-.855v5.88h-2.727l.142-14.486h4.59c3.532-.029 4.955 1.856 5.02 4.162-.065 1.84-1.174 3.161-2.868 3.727l4.449 5.881zm16.92-6.598c.02 4.338-3.646 7.268-7.457 7.314h-5.02l.146-14.486h4.734c4.578-.055 7.617 2.793 7.597 7.172zm8.32-7.172l-.141 14.486h-2.724l.14-14.486h2.726zm8.75 14.486h-2.722l.142-14.057 2.44-.862 6.88 11.188-.141-10.755h2.725l-.142 13.914-2.723.858-6.6-11.047h-.141l.282 10.761zm27.397-.572l-2.58.858-1.435-4.158h-5.02l-1.725 4.158-2.435-.858 5.593-13.915h2.439l5.163 13.915zm-85.4 2.85a10.054 10.054 0 01-7.79-.353 9.974 9.974 0 01-5.182-5.704l-.01-.02c.003.006.003.008.007.01a10.214 10.214 0 01-.651-3.557c0-1.439.308-2.863.922-4.206 1.134-2.49 3.193-4.39 5.802-5.36C28.6 3.09 34.42 5.818 36.3 11.024c.955 2.596.845 5.385-.304 7.865a10.105 10.105 0 01-5.76 5.265zM35.547 6.1L33.452.361 17.635 6.1H0v16.926h18.016l2.096 5.737 15.807-5.737h92.83V6.1H35.546z" mask="url(#b)"/></g><path fill="#F58220" d="M47.36 9.18h-1.576v4.3h1.576c.82.011 2.411-.346 2.44-2.29-.029-1.324-1.116-2.042-2.44-2.01m14.058 10.04h1.721c3.126-.057 5.241-1.874 5.306-5.164-.065-2.687-1.931-4.775-4.734-4.733h-2.293v9.896zm49.484-3.73l-1.722-5.736-1.865 5.736zM24.364 7.435c-1.839.682-3.29 2.023-4.09 3.785a7.105 7.105 0 00-.187 5.464l.012.024c.625 1.775 1.92 3.19 3.633 4a7.069 7.069 0 005.476.248 7.136 7.136 0 004.051-3.7c.812-1.744.885-3.712.204-5.557-1.318-3.666-5.408-5.573-9.099-4.264"/><path fill="#58595B" d="M47.631 34.752l-.576-1.386c-.235-.563-.48-1.43-.48-1.43s-.236.867-.47 1.43l-.576 1.386h2.102zm-1.104-5.777h.141l3.652 8.055h-1.726l-.376-.903h-3.24l-.377.903h-1.585l3.511-8.055zm4.663-.423h1.585v4.263c.306-.575.858-.893 1.551-.893 1.092 0 1.879.8 1.879 2.22v2.89h-1.586v-2.785c0-.563-.27-.88-.833-.88-.635 0-1.011.352-1.011.986v2.678H51.19v-8.479zm9.865 5.543c-.07-.552-.423-.88-1.045-.88-.622 0-1.046.28-1.175.88h2.22zm-.904 1.727a2.17 2.17 0 001.256-.4l.904.975c-.48.423-1.092.74-2.137.74-1.785 0-2.936-1.08-2.936-2.619 0-1.516 1.21-2.596 2.76-2.596 1.797 0 2.771 1.34 2.654 3.09H58.86c.153.516.575.81 1.292.81zm7.176-1.304c0-.739-.388-1.198-1.07-1.198-.668 0-1.044.46-1.044 1.198 0 .764.376 1.232 1.045 1.232.68 0 1.069-.468 1.069-1.232m-3.758 0c0-1.516.974-2.596 2.23-2.596.753 0 1.246.318 1.528.858l-.024-.752h1.574v5.003h-1.574l.024-.764c-.258.506-.787.87-1.551.87-1.197 0-2.207-1.08-2.207-2.619m10.24 0c0-.739-.446-1.198-1.127-1.198-.67 0-1.093.46-1.093 1.198 0 .787.423 1.232 1.093 1.232.681 0 1.127-.445 1.127-1.232m-3.852 0c0-1.539 1.034-2.596 2.243-2.596.798 0 1.245.318 1.562.811v-4.18h1.586v8.478h-1.586l.035-.728c-.282.528-.81.834-1.573.834-1.222 0-2.267-1.08-2.267-2.619m12.942.023c0-.752-.423-1.255-1.127-1.255-.705 0-1.14.503-1.14 1.255 0 .74.435 1.258 1.14 1.258.704 0 1.127-.517 1.127-1.258m-3.887 0c0-1.525 1.209-2.618 2.76-2.618 1.55 0 2.748 1.093 2.748 2.619 0 1.515-1.198 2.596-2.748 2.596-1.551 0-2.76-1.08-2.76-2.596m7.035-1.199h-.834v-1.315h.834V30.35c0-1.292.61-1.949 1.843-1.949.705 0 1.175.211 1.539.633l-.857 1.057c-.118-.14-.258-.27-.505-.27-.26 0-.435.141-.435.505v1.703h1.35v1.315h-1.35v3.688h-1.585v-3.688zm6.33 1.175c0-1.516 1.174-2.596 2.736-2.596.998 0 1.597.365 2.102 1l-1.127.914a1.182 1.182 0 00-.975-.527c-.716 0-1.116.504-1.116 1.21 0 .728.4 1.244 1.116 1.244.505 0 .775-.235 1.01-.47l1.068.94c-.493.552-1.08.904-2.078.904-1.562 0-2.736-1.08-2.736-2.619m5.778-5.966h1.585v4.263c.306-.575.857-.893 1.55-.893 1.093 0 1.88.8 1.88 2.22v2.89h-1.586v-2.785c0-.563-.27-.88-.834-.88-.634 0-1.01.352-1.01.986v2.678h-1.585v-8.479zm9.818 5.966c0-.739-.387-1.198-1.07-1.198-.668 0-1.044.46-1.044 1.198 0 .764.376 1.232 1.045 1.232.682 0 1.069-.468 1.069-1.232m-3.758 0c0-1.516.975-2.596 2.23-2.596.753 0 1.246.318 1.528.858l-.023-.752h1.573v5.003h-1.573l.023-.764c-.258.506-.787.87-1.55.87-1.198 0-2.208-1.08-2.208-2.619m6.553-2.49h1.586l-.036.822c.306-.598.893-.927 1.586-.927 1.092 0 1.879.798 1.879 2.219v2.889h-1.586v-2.783c0-.564-.27-.881-.833-.881-.635 0-1.01.352-1.01.986v2.678h-1.586v-5.003z"/><g transform="translate(116 31.638)"><mask id="d" fill="#fff"><use xlink:href="#c"/></mask><path fill="#58595B" d="M4.68 2.88c0-.739-.446-1.198-1.127-1.198-.67 0-1.093.46-1.093 1.198 0 .787.423 1.232 1.093 1.232.68 0 1.127-.445 1.127-1.232M.863 6.767L1.979 5.9c.352.434.763.774 1.48.774.727 0 1.186-.435 1.186-1.35v-.599c-.27.458-.787.775-1.55.775C1.873 5.5.828 4.42.828 2.88.828 1.341 1.862.284 3.07.284c.798 0 1.316.353 1.609.881L4.645.39H6.23v4.991c0 1.903-1.245 2.62-2.701 2.62C2.202 8 1.427 7.53.863 6.766" mask="url(#d)"/></g><path fill="#58595B" d="M127.115 34.095c-.07-.552-.422-.88-1.045-.88-.622 0-1.045.28-1.175.88h2.22zm-.904 1.727c.575 0 1.01-.224 1.257-.4l.904.975c-.482.423-1.092.74-2.138.74-1.785 0-2.935-1.08-2.935-2.619 0-1.516 1.21-2.596 2.76-2.596 1.796 0 2.771 1.34 2.653 3.09h-3.793c.153.516.575.81 1.292.81z"/></g></svg>