<?xml version="1.0" encoding="UTF-8" standalone="no"?>
<svg
     xmlns:dc="http://purl.org/dc/elements/1.1/"
     xmlns:cc="http://creativecommons.org/ns#"
     xmlns:rdf="http://www.w3.org/1999/02/22-rdf-syntax-ns#"
     xmlns:svg="http://www.w3.org/2000/svg"
     xmlns="http://www.w3.org/2000/svg"
     version="1.1"
     id="svg7855"
     viewBox="0 0 500.00001 149.37117">
    <defs
         id="defs7857">
        <clipPath
             id="clipPath6936"
             clipPathUnits="userSpaceOnUse">
            <path
                 id="path6938"
                 d="m 49.2,454.2 340.496,0 0,99.658 -340.496,0 0,-99.658 z" />
        </clipPath>
        <clipPath
             id="clipPath6926"
             clipPathUnits="userSpaceOnUse">
            <path
                 id="path6928"
                 d="m 57.391,503.753 c 0,-24.369 19.821,-44.189 44.188,-44.189 l 0,0 c 24.372,0 44.196,19.82 44.196,44.189 l 0,0 c 0,24.367 -19.824,44.19 -44.196,44.19 l 0,0 c -24.367,0 -44.188,-19.823 -44.188,-44.19 m 5.125,0 c 0,21.538 17.523,39.061 39.063,39.061 l 0,0 c 21.541,0 39.068,-17.523 39.068,-39.061 l 0,0 c 0,-21.545 -17.527,-39.062 -39.068,-39.062 l 0,0 c -21.54,0 -39.063,17.517 -39.063,39.062" />
        </clipPath>
        <clipPath
             id="clipPath6898"
             clipPathUnits="userSpaceOnUse">
            <path
                 id="path6900"
                 d="m 49.2,454.2 340.496,0 0,99.658 -340.496,0 0,-99.658 z" />
        </clipPath>
    </defs>
    <metadata
         id="metadata7860">
        <rdf:RDF>
            <cc:Work
                 rdf:about="">
                <dc:format>image/svg+xml</dc:format>
                <dc:type
                     rdf:resource="http://purl.org/dc/dcmitype/StillImage" />
                <dc:title></dc:title>
            </cc:Work>
        </rdf:RDF>
    </metadata>
    <g
         transform="translate(-352.93827,-437.46681)"
         id="layer1">
        <g
             id="g6894"
             transform="matrix(1.6561759,0,0,-1.6561759,259.38868,1346.4568)">
            <g
                 clip-path="url(#clipPath6898)"
                 id="g6896">
                <g
                     transform="translate(101.5799,464.691)"
                     id="g6902">
                    <path
                         id="path6904"
                         style="fill:#ffffff;fill-opacity:1;fill-rule:nonzero;stroke:none"
                         d="M 0,0 C -21.541,0 -39.066,17.517 -39.066,39.062 -39.066,60.6 -21.541,78.123 0,78.123 21.54,78.123 39.069,60.6 39.069,39.062 39.069,17.517 21.54,0 0,0" />
                </g>
                <g
                     transform="translate(137.5154,503.7527)"
                     id="g6906">
                    <path
                         id="path6908"
                         style="fill:#e31b23;fill-opacity:1;fill-rule:nonzero;stroke:none"
                         d="m 0,0 c 0,-19.848 -16.088,-35.931 -35.931,-35.931 -19.85,0 -35.935,16.083 -35.935,35.931 0,19.843 16.085,35.93 35.935,35.93 C -16.088,35.93 0,19.843 0,0" />
                </g>
                <g
                     transform="translate(115.5508,483.543)"
                     id="g6910">
                    <path
                         id="path6912"
                         style="fill:#ffffff;fill-opacity:1;fill-rule:nonzero;stroke:none"
                         d="m 0,0 c 0,-3.232 -6.122,-5.858 -13.673,-5.858 -7.55,0 -13.669,2.626 -13.669,5.858 0,3.238 6.119,5.861 13.669,5.861 C -6.122,5.861 0,3.238 0,0" />
                </g>
                <g
                     transform="translate(117.5034,507.9468)"
                     id="g6914">
                    <path
                         id="path6916"
                         style="fill:#ffffff;fill-opacity:1;fill-rule:nonzero;stroke:none"
                         d="m 0,0 c 0,-8.62 -6.995,-15.621 -15.626,-15.621 -8.623,0 -15.617,7.001 -15.617,15.621 0,8.636 6.994,15.626 15.617,15.626 C -6.995,15.626 0,8.636 0,0" />
                </g>
                <g
                     transform="translate(121.4112,522.6057)"
                     id="g6918">
                    <path
                         id="path6920"
                         style="fill:#ffffff;fill-opacity:1;fill-rule:nonzero;stroke:none"
                         d="m 0,0 c 0,-2.163 -1.748,-3.903 -3.906,-3.903 -2.15,0 -3.907,1.74 -3.907,3.903 0,2.159 1.757,3.908 3.907,3.908 C -1.748,3.908 0,2.159 0,0" />
                </g>
            </g>
        </g>
        <g
             id="g6922"
             transform="matrix(1.6561759,0,0,-1.6561759,259.38868,1346.4568)">
            <g
                 clip-path="url(#clipPath6926)"
                 id="g6924">
                <path
                     id="path6930"
                     style="fill:#e31b23;fill-opacity:1;fill-rule:nonzero;stroke:none"
                     d="m 145.775,547.943 -88.384,0 0,-88.379 88.384,0 0,88.379 z" />
            </g>
        </g>
        <g
             id="g6932"
             transform="matrix(1.6561759,0,0,-1.6561759,259.38868,1346.4568)">
            <g
                 clip-path="url(#clipPath6936)"
                 id="g6934">
                <g
                     transform="translate(335.83,499.3532)"
                     id="g6940">
                    <path
                         id="path6942"
                         style="fill:#ffffff;fill-opacity:1;fill-rule:nonzero;stroke:none"
                         d="m 0,0 17.944,0 c 0,8.563 -5.678,11.265 -10.606,11.265 -7.132,0 -10.61,-4.878 -10.61,-10.186 0,-5.625 3.568,-10.109 10.463,-10.109 6.595,0 9.239,2.971 10.48,6.987 l -3.203,0 C 13.667,-4.573 11.464,-6.269 7.191,-6.269 2.729,-6.269 0.15,-3.447 0,0 m 7.366,8.468 c 3.503,0 6.536,-1.809 7.218,-5.791 l -14.525,0 C 0.713,6.859 4.13,8.468 7.366,8.468" />
                </g>
                <g
                     transform="translate(322.2623,490.3228)"
                     id="g6944">
                    <path
                         id="path6946"
                         style="fill:#ffffff;fill-opacity:1;fill-rule:nonzero;stroke:none"
                         d="m 0,0 c 5.969,0 8.202,2.762 9.21,6.987 l -3.037,0 C 5.518,4.22 3.803,2.762 0,2.762 c -3.569,0 -5.118,1.284 -5.118,4.815 l 0,9.664 10.253,0 0,2.643 -10.253,0 0,4.84 -3.117,0 0,-17.62 C -8.235,2.348 -5.497,0 0,0" />
                </g>
                <g
                     transform="translate(270.3486,507.3792)"
                     id="g6948">
                    <path
                         id="path6950"
                         style="fill:#ffffff;fill-opacity:1;fill-rule:nonzero;stroke:none"
                         d="m 0,0 0,2.819 -3.052,0 0,-19.486 3.089,0 0,10.724 c 0,3.952 2.139,6.385 7.162,6.385 3.39,0 5.944,-0.953 5.944,-4.75 l 0,-12.359 3.088,0 0,11.945 c 0,5.551 -3.387,7.961 -8.619,7.961 C 4.049,3.239 1.256,1.721 0,0" />
                </g>
                <g
                     transform="translate(237.6785,502.3849)"
                     id="g6952">
                    <path
                         id="path6954"
                         style="fill:#ffffff;fill-opacity:1;fill-rule:nonzero;stroke:none"
                         d="m 0,0 3.181,0 c -0.503,3.181 -1.905,5.137 -3.797,6.424 -1.91,1.243 -4.224,1.809 -6.782,1.809 -7.128,0 -10.607,-4.877 -10.607,-10.159 0,-4.874 2.973,-10.136 10.607,-10.136 6.361,0 9.302,2.736 10.516,6.987 l -3.208,0 C -1.187,-7.754 -2.911,-9.3 -7.398,-9.3 c -5.292,0 -7.367,3.567 -7.367,7.609 0,4.552 3.387,7.127 7.367,7.127 C -3.39,5.436 -0.862,3.895 0,0" />
                </g>
                <g
                     transform="translate(190.7739,507.4688)"
                     id="g6956">
                    <path
                         id="path6958"
                         style="fill:#ffffff;fill-opacity:1;fill-rule:nonzero;stroke:none"
                         d="m 0,0 0,2.727 -3.115,0 0,-19.483 3.115,0 0,10.723 c 0,3.982 1.813,6.332 6.745,6.332 l 0,2.85 C 3.09,3.149 1.042,1.662 0,0" />
                </g>
                <g
                     transform="translate(300.3751,507.8211)"
                     id="g6960">
                    <path
                         id="path6962"
                         style="fill:#ffffff;fill-opacity:1;fill-rule:nonzero;stroke:none"
                         d="m 0,0 c 5.32,0 8.204,-2.763 8.204,-7.425 0,-3.804 -2.65,-7.311 -8.204,-7.311 -5.841,0 -8.112,3.741 -8.112,7.311 C -8.112,-2.763 -4.78,0 0.036,0 L 0,0 Z m 0,-17.498 c 8.024,0 11.268,5.146 11.268,10.073 0,6.717 -4.726,10.222 -11.268,10.222 -6.918,0 -11.263,-4.314 -11.263,-10.222 0,-4.456 2.832,-10.073 11.299,-10.073 l -0.036,0 z" />
                </g>
                <g
                     transform="translate(254.0888,507.8211)"
                     id="g6964">
                    <path
                         id="path6966"
                         style="fill:#ffffff;fill-opacity:1;fill-rule:nonzero;stroke:none"
                         d="m 0,0 c 3.537,0 6.542,-1.809 7.222,-5.79 l -14.529,0 C -6.625,-1.603 -3.204,0 0,0 m -7.334,-8.468 17.951,0 C 10.617,0.096 4.906,2.797 0,2.797 c -7.128,0 -10.634,-4.878 -10.634,-10.186 0,-5.625 3.596,-10.109 10.459,-10.109 6.593,0 9.27,2.971 10.518,6.987 l -3.213,0 c -0.798,-2.529 -3.024,-4.225 -7.305,-4.225 -4.425,0 -7.037,2.821 -7.159,6.268" />
                </g>
                <g
                     transform="translate(213.868,499.5627)"
                     id="g6968">
                    <path
                         id="path6970"
                         style="fill:#ffffff;fill-opacity:1;fill-rule:nonzero;stroke:none"
                         d="m 0,0 0,-0.736 c 0,-4.283 -3.83,-5.742 -7.575,-5.742 -2.879,0 -5.081,0.748 -5.081,3.332 0,2.078 2.318,3.146 5.912,3.146 L 0,0 Z m 0.036,-6.147 0,-2.703 3.117,0 0,13.997 c 0,3.769 -2.644,5.908 -9.008,5.908 -6.536,0 -8.761,-2.671 -9.295,-6.891 l 3.119,0 c 0.384,2.817 1.964,4.094 6.118,4.094 C -1.512,8.258 0,7.164 0,4.781 l 0,-2.132 -6.175,0 c -4.547,0 -9.688,-0.894 -9.688,-6.026 0,-4.404 4.246,-5.863 7.488,-5.863 3.112,0 6.417,0.564 8.411,3.093" />
                </g>
                <g
                     transform="translate(172.5465,507.8211)"
                     id="g6972">
                    <path
                         id="path6974"
                         style="fill:#ffffff;fill-opacity:1;fill-rule:nonzero;stroke:none"
                         d="m 0,0 c 4.962,0 8.296,-2.763 8.296,-7.308 0,-4.395 -3.096,-7.428 -8.296,-7.428 -4.841,0 -7.872,3.062 -7.872,7.428 C -7.872,-2.793 -4.425,0 0,0 M 8.178,-0.62 C 6.209,1.814 3.119,2.797 0.095,2.797 c -6.008,0 -11.173,-3.917 -11.173,-10.105 0,-6.806 5.288,-10.19 11.078,-10.19 3.065,0 6.209,0.863 8.178,3.36 l 0,-1.274 c 0,-4.819 -2.471,-6.66 -7.966,-6.66 -3.125,0 -6.419,0.618 -7.106,4.01 l -3.207,0 c 0.954,-5.735 5.88,-6.804 10.49,-6.804 6.654,0 10.877,2.439 10.877,10.103 l 0,17.14 -3.088,0 0,-2.997 z" />
                </g>
                <g
                     transform="translate(354.3429,492.3953)"
                     id="g6976">
                    <path
                         id="path6978"
                         style="fill:#ffffff;fill-opacity:1;fill-rule:nonzero;stroke:none"
                         d="M 0,0 C 0,0.836 0.605,1.432 1.354,1.432 2.098,1.432 2.715,0.836 2.715,0 2.715,-0.841 2.098,-1.434 1.354,-1.434 0.605,-1.434 0,-0.841 0,0 m -0.43,0 c 0,-1.092 0.845,-1.835 1.784,-1.835 0.941,0 1.783,0.743 1.783,1.835 0,1.09 -0.842,1.833 -1.783,1.833 C 0.415,1.833 -0.43,1.09 -0.43,0 m 1.09,-1.023 0.369,0 0,0.855 0.27,0 0.502,-0.855 0.403,0 -0.535,0.871 c 0.278,0.026 0.501,0.168 0.501,0.526 0,0.417 -0.271,0.588 -0.754,0.588 l -0.756,0 0,-1.985 z m 0.369,1.704 0.355,0 c 0.186,0 0.412,-0.039 0.412,-0.274 0,-0.267 -0.187,-0.3 -0.423,-0.3 l -0.344,0 0,0.574 z" />
                </g>
            </g>
        </g>
    </g>
</svg>
