<svg viewBox="0 0 61 42" xmlns="http://www.w3.org/2000/svg" xmlns:xlink="http://www.w3.org/1999/xlink">
    <title>SKG_Logo</title>
    <defs>
        <path d="M.013 41.987H60.8V.116H.013z" id="path-1"/>
    </defs>
    <g fill="none" fill-rule="evenodd" id="Symbols">
        <g id="SKG_Logo">
            <mask fill="#fff" id="mask-2">
                <use xlink:href="#path-1"/>
            </mask>
            <path d="M16.29 32.165c0-3.196 0-3.77-.041-4.425-.042-.696-.21-1.024-.901-1.168a3.965 3.965 0 0 0-.712-.061c-.084 0-.168-.041-.168-.123 0-.123.105-.164.335-.164.943 0 2.179.061 2.305.061.188 0 1.403-.061 2.032-.061.23 0 .335.04.335.164 0 .082-.084.123-.168.123-.146 0-.272.02-.524.061-.565.103-.733.45-.775 1.168-.041.656-.041 1.23-.041 4.425v1.23h.083c.356-.39 4.148-4.16 4.902-4.958.587-.595 1.132-1.127 1.132-1.476 0-.245-.105-.368-.273-.43-.104-.04-.188-.082-.188-.164 0-.102.105-.143.251-.143.42 0 1.069.061 1.572.061.104 0 1.487-.061 2.01-.061.231 0 .315.04.315.143 0 .103-.042.144-.21.144-.314 0-.754.102-1.173.286-.859.37-1.32.882-2.262 1.763-.524.491-4.17 3.974-4.61 4.487.545.594 4.903 4.998 5.762 5.777 1.76 1.598 2.116 1.926 3.121 2.336a3.933 3.933 0 0 0 1.3.266c.146 0 .272.041.272.123 0 .102-.105.164-.462.164h-1.068c-.586 0-.984 0-1.445-.041-1.11-.102-1.634-.553-2.535-1.25-.943-.758-5.384-5.45-6.39-6.658h-.104v2.007c0 1.967 0 3.586.104 4.446.063.595.189 1.045.817 1.127.294.041.629.082.817.082.126 0 .168.062.168.123 0 .102-.105.164-.335.164-1.027 0-2.242-.062-2.41-.062-.167 0-1.382.062-2.01.062-.231 0-.336-.041-.336-.164 0-.061.042-.123.168-.123.188 0 .44-.04.628-.082.42-.082.524-.532.608-1.127.105-.86.105-2.479.105-4.446v-3.606" fill="#fff" id="Fill-1" mask="url(#mask-2)"/>
            <path d="M42.393 36.488c0-1.659-.104-1.884-.936-2.11a3.973 3.973 0 0 0-.708-.061c-.083 0-.166-.041-.166-.123 0-.123.104-.164.333-.164.936 0 2.247.061 2.351.061.104 0 1.415-.061 2.04-.061.228 0 .332.041.332.164 0 .082-.083.123-.166.123-.146 0-.27.02-.52.061-.562.103-.729.451-.77 1.168-.042.656-.042 1.27-.042 2.131v2.295c0 .922-.02.962-.27 1.106-1.333.696-3.205.922-4.412.922-1.582 0-4.537-.205-6.846-2.192-1.27-1.086-2.476-3.279-2.476-5.84 0-3.278 1.623-5.593 3.475-6.74 1.872-1.147 3.932-1.291 5.535-1.291 1.31 0 2.788.266 3.184.348.437.103 1.165.185 1.685.205.208.02.25.103.25.185 0 .286-.146.86-.146 2.909 0 .328-.041.43-.187.43-.104 0-.125-.123-.146-.307-.02-.287-.124-.86-.437-1.352-.52-.779-2.206-1.66-4.89-1.66-1.311 0-2.872.123-4.453 1.352-1.207.943-2.06 2.807-2.06 5.204 0 2.89 1.477 4.979 2.206 5.676 1.644 1.577 3.537 2.192 5.452 2.192.749 0 1.83-.123 2.372-.43.27-.144.416-.37.416-.717v-3.484" fill="#fff" id="Fill-3" mask="url(#mask-2)"/>
            <path d="M42.448 10.813c.093-.324.145-.665.145-1.018 0-2.013-1.61-3.644-3.595-3.644s-3.595 1.631-3.595 3.644c0 1.826 1.327 3.333 3.055 3.598-3.937 2.81-7.363 6.024-9.914 8.678H45.59v-8.883h.016l2.704-5.135c-2.011.72-3.975 1.67-5.862 2.76" fill="#968C7F" id="Fill-4" mask="url(#mask-2)"/>
            <path d="M58.122 7.28A3.633 3.633 0 0 0 60.8 3.76c0-2.013-1.61-3.644-3.595-3.644-1.986 0-3.595 1.631-3.595 3.644 0 1.013.408 1.929 1.067 2.59-1.676.043-3.574.6-5.54 1.48l2.994 5.358h.017v14.474c4.792-1.789 8.996-5.645 8.63-13.736-.158-3.47-1.143-5.564-2.657-6.647" fill="#fff" id="Fill-5" mask="url(#mask-2)"/>
            <path d="M11.577 37.644c.011-1.903-1.081-2.84-5.358-5.005-4.275-2.166-4.011-2.62-3.975-3.685.036-1.065 1.978-2.467 4.143-2.325 2.914-.081 3.79.75 3.984.968.195.218.399.762.436 1.006.036.161.07.262.26.257.158-.005.218-.148.21-.474-.032-1.384.078-2.059.076-2.16-.003-.102-.067-.141-.32-.134-.253.007-.508-.006-1.111-.071-.795-.1-1.715-.155-2.95-.12-4.021.112-6.52 1.668-6.468 3.846.033 1.384.823 2.624 4.221 4.3l1.443.713c2.757 1.369 3.695 2.156 3.728 3.56.03 1.303-1.424 2.749-4.464 2.834-2.122.06-4.225-.452-4.736-1.944-.101-.282-.108-.567-.113-.75-.003-.163-.037-.223-.226-.218-.159.005-.22.108-.246.333-.024.326-.132 1.144-.107 2.16.012.55.046.631.493.761 1.308.37 2.768.472 4.256.43.089-.002.177-.008.265-.012 1.249-.075 6.526-.611 6.56-4.27" fill="#fff" id="Fill-6" mask="url(#mask-2)"/>
        </g>
    </g>
</svg>