<?xml version="1.0" encoding="utf-8"?>
<!-- Generator: Adobe Illustrator 19.1.0, SVG Export Plug-In . SVG Version: 6.00 Build 0)  -->
<svg version="1.1" xmlns="http://www.w3.org/2000/svg" xmlns:xlink="http://www.w3.org/1999/xlink" x="0px" y="0px"
	 viewBox="0 0 65 65" style="enable-background:new 0 0 65 65;" xml:space="preserve">
	<style type="text/css">
		.st0{fill:#000000;}
	</style>
	<symbol id="icon">
		<g>
			<path class="st0" d="M44.7,14.4c-4.5,0-8.8,1.7-12.2,4.7c-3.4-3.1-7.7-4.7-12.2-4.7c-10,0-18.1,8.1-18.1,18.1
				c0,10,8.1,18.1,18.1,18.1c4.5,0,8.8-1.7,12.2-4.7c3.3,3.1,7.7,4.7,12.2,4.7c10,0,18.1-8.1,18.1-18.1C62.8,22.5,54.7,14.4,44.7,14.4
				z M32.5,22.5c0.4,0.5,0.8,1.1,1.2,1.7h-2.4C31.7,23.6,32.1,23.1,32.5,22.5z M34.2,40h-3.3c-0.3-0.6-0.6-1.2-0.8-1.8h5
				C34.8,38.8,34.5,39.4,34.2,40z M35.3,37.4h-5.6c-0.2-0.6-0.3-1.2-0.5-1.7h6.5C35.6,36.2,35.5,36.8,35.3,37.4z M35.9,34.8h-6.8
				C29,34.2,29,33.6,28.9,33h7.1C36,33.6,36,34.2,35.9,34.8z M28.9,32.2c0-0.6,0.1-1.2,0.1-1.8h6.9c0.1,0.6,0.1,1.2,0.1,1.8H28.9z
				 M35.4,27.9c0.2,0.6,0.3,1.2,0.4,1.8h-6.6c0.1-0.6,0.3-1.2,0.5-1.8H35.4z M29.9,27.1c0.3-0.7,0.6-1.4,0.9-2h3.3
				c0.4,0.7,0.7,1.3,0.9,2H29.9z M20.3,48.3c-8.7,0-15.8-7.1-15.8-15.8c0-8.7,7.1-15.8,15.8-15.8c3.9,0,7.6,1.4,10.5,4.1
				c-2.8,3.3-4.3,7.4-4.3,11.7c0,4.3,1.5,8.4,4.3,11.7C28,46.8,24.2,48.3,20.3,48.3z M32.5,42.5c-0.4-0.5-0.8-1.1-1.2-1.7h2.4
				C33.3,41.4,32.9,41.9,32.5,42.5z M44.7,48.3c-3.9,0-7.6-1.4-10.5-4.1c2.8-3.3,4.3-7.4,4.3-11.7c0-4.3-1.5-8.4-4.3-11.7
				c2.9-2.6,6.6-4.1,10.5-4.1c8.7,0,15.8,7.1,15.8,15.8S53.4,48.3,44.7,48.3z"/>
		</g>
	</symbol>
</svg>
