<?xml version="1.0" encoding="utf-8"?>
<!-- Generator: Adobe Illustrator 19.1.0, SVG Export Plug-In . SVG Version: 6.00 Build 0)  -->
<svg version="1.1" id="icon" xmlns="http://www.w3.org/2000/svg" xmlns:xlink="http://www.w3.org/1999/xlink" x="0px" y="0px"
	 viewBox="0 0 55 55" style="enable-background:new 0 0 55 55;" xml:space="preserve">
<style type="text/css">
	.st0{fill:#FFFFFF;}
</style>
<path class="st0" d="M25.2,29.4c-1,0-1.8-0.8-1.8-1.8v-0.3c0-1,0.8-1.8,1.8-1.8h24.2L49.4,25c-0.1-1-0.3-2.1-0.6-3l-0.1-0.4H30.1
	c-1,0-1.8-0.8-1.8-1.8v-0.3c0-1,0.8-1.8,1.8-1.8h17.1l0,0l0.6,0c0,0-0.2-0.6-0.5-1.1c-3.9-7-11.4-11.4-19.5-11.4
	c-12.3,0-22.3,10-22.3,22.3s10,22.3,22.3,22.3c8.1,0,15.6-4.4,19.5-11.5c0,0,0.3-0.5,0.5-1.1l-1.1,0H20.3c-1,0-1.8-0.8-1.8-1.8v-0.3
	c0-1,0.8-1.8,1.8-1.8h28.5l0.1-0.4c0.3-1,0.4-2,0.6-3l0.1-0.6H25.2z M47.9,32.4H20.3c-1.5,0-2.8,1.2-2.8,2.8v0.3
	c0,1.5,1.2,2.8,2.8,2.8h24.5c-3.7,5.8-10,9.3-16.9,9.3c-11,0-20-9-20-20s9-20,20-20c6.8,0,13.2,3.5,16.9,9.3H30.1
	c-1.5,0-2.8,1.2-2.8,2.8v0.3c0,1.5,1.2,2.8,2.8,2.8h17.8c0.2,0.6,0.3,1.3,0.4,2H25.2c-1.5,0-2.8,1.2-2.8,2.8v0.3
	c0,1.5,1.2,2.8,2.8,2.8h23.1C48.2,31.1,48.1,31.7,47.9,32.4z"/>
</svg>
