<?xml version="1.0" encoding="utf-8"?>
<!-- Generator: Adobe Illustrator 19.1.0, SVG Export Plug-In . SVG Version: 6.00 Build 0)  -->
<svg version="1.1" id="icon" xmlns="http://www.w3.org/2000/svg" xmlns:xlink="http://www.w3.org/1999/xlink" x="0px" y="0px"
	 viewBox="0 0 70 70" style="enable-background:new 0 0 70 70;" xml:space="preserve">
<style type="text/css">
	.st0{fill:#FFFFFF;}
</style>
<g>
	<g>
		<path class="st0" d="M50.6,54H19c-0.7,0-1.2-0.3-1.6-0.8c-1.5-2.3,1.6-10.3,3-13.7c0.6-1.3,1.5-1.8,2.5-2.2l5-2.3l3-1.3l4,2.7
			l4-2.7l3,1.3l5,2.3c0.9,0.4,1.9,1,2.4,2.2c1.4,3.4,4.5,11.4,3,13.7C51.9,53.7,51.3,54,50.6,54z M19.3,51.7h31.1
			c0.2-1.4-1.2-6.4-3.3-11.3l0,0c-0.2-0.4-0.8-0.7-1.3-1l-5-2.3L39,36.3l-4.2,2.9l-4.2-2.9l-1.8,0.8l-5,2.3c-0.7,0.3-1.1,0.5-1.3,1
			C20.5,45.4,19,50.4,19.3,51.7z"/>
		<path class="st0" d="M34.9,33.3c-4.1,0-7.4-2.8-8.8-7.6c-1.5-0.5-2.3-1.7-2.3-3.6c0-1.9,0.8-2.8,1.6-3.3c0.5-5.2,3.7-7.9,9.5-7.9
			c5.8,0,9,2.7,9.5,7.9c0.8,0.5,1.6,1.4,1.6,3.3c0,1.9-0.8,3.1-2.3,3.6C42.3,30.5,39.1,33.3,34.9,33.3z M34.9,13.3
			c-4.8,0-7.1,2-7.2,6.4l0,0.8l-0.8,0.2c-0.3,0.1-0.7,0.2-0.7,1.4c0,1.2,0.5,1.4,1.1,1.4l0.8,0.1l0.2,0.8c1,4.1,3.5,6.6,6.7,6.6
			c3.2,0,5.7-2.5,6.7-6.6l0.2-0.8l0.8-0.1c0.6-0.1,1.1-0.2,1.1-1.4c0-1.2-0.5-1.3-0.7-1.4l-0.8-0.2l0-0.8
			C42,15.3,39.7,13.3,34.9,13.3z"/>
	</g>
	<g>
		<g>
			<path class="st0" d="M58.4,39.7l1.4,0.6l4,1.8c0.4,0.2,0.8,0.4,1,0.7c1.6,3.8,2.8,7.8,2.6,9H54.4c0.2-2.9-1.5-7.9-3.2-12l0.3-0.1
				l2.8,1.9L55,42l0.6-0.4L58.4,39.7 M58.3,38.6L55,40.8l-3.2-2.2L50,39.4c0,0.1,0.1,0.1,0.1,0.2c1.4,3.2,4.3,10.9,3.1,13.3h14.5
				c2.4,0-2-10.4-2-10.4c-0.3-0.6-0.9-1-1.5-1.3l-4-1.8L58.3,38.6L58.3,38.6z"/>
		</g>
		<path class="st0" d="M55.1,23c3.8,0,5.6,1.6,5.7,5.1l0,0.7l0.7,0.2c0.2,0.1,0.5,0.1,0.5,1c0,0.9-0.3,1-0.8,1.1l-0.7,0.1l-0.2,0.7
			c-0.8,3.3-2.8,5.2-5.3,5.2c-2.5,0-4.5-1.9-5.3-5.2l-0.2-0.7l-0.7-0.1c-0.4,0-0.8-0.2-0.8-1.1c0-0.9,0.3-1,0.5-1l0.7-0.2l0-0.7
			C49.5,24.7,51.3,23,55.1,23 M55.1,22c-4.6,0-6.6,2.3-6.7,6c-0.8,0.2-1.3,0.8-1.3,2c0,1.3,0.6,2,1.7,2.1c0.9,3.8,3.3,6,6.3,6
			c3,0,5.4-2.2,6.3-6c1.1-0.1,1.7-0.7,1.7-2.1c0-1.2-0.5-1.8-1.3-2C61.6,24.3,59.7,22,55.1,22L55.1,22z"/>
	</g>
	<g>
		<g>
			<path class="st0" d="M18.4,39.7L18.4,39.7c-1.7,4.2-3.4,9.2-3.2,12.2H2.6c-0.1-1.2,1-5.1,2.6-9c0.2-0.4,0.4-0.5,1-0.7l4-1.8
				l1.4-0.6l2.8,1.9L15,42l0.6-0.4L18.4,39.7 M18.3,38.6L15,40.8l-3.2-2.2l-1.9,0.8l-4,1.8c-0.6,0.2-1.2,0.5-1.5,1.3
				c0,0-4.4,10.4-2,10.4h14.1c-1.2-2.5,1.8-10.1,3.1-13.3c0.1-0.1,0.1-0.2,0.2-0.3L18.3,38.6L18.3,38.6z"/>
		</g>
		<path class="st0" d="M15.1,23c3.8,0,5.6,1.6,5.7,5.1l0,0.7l0.7,0.2c0.2,0.1,0.5,0.1,0.5,1c0,0.9-0.3,1-0.8,1.1l-0.7,0.1l-0.2,0.7
			c-0.8,3.3-2.8,5.2-5.3,5.2c-2.5,0-4.5-1.9-5.3-5.2l-0.2-0.7l-0.7-0.1c-0.4,0-0.8-0.2-0.8-1.1c0-0.9,0.3-1,0.5-1l0.7-0.2l0-0.7
			C9.5,24.7,11.3,23,15.1,23 M15.1,22c-4.6,0-6.6,2.3-6.7,6c-0.8,0.2-1.3,0.8-1.3,2c0,1.3,0.6,2,1.7,2.1c0.9,3.8,3.3,6,6.3,6
			c3,0,5.4-2.2,6.3-6c1.1-0.1,1.7-0.7,1.7-2.1c0-1.2-0.5-1.8-1.3-2C21.6,24.3,19.7,22,15.1,22L15.1,22z"/>
	</g>
</g>
</svg>
