<?xml version="1.0" encoding="utf-8"?>
<!-- Generator: Adobe Illustrator 19.1.0, SVG Export Plug-In . SVG Version: 6.00 Build 0)  -->
<svg version="1.1" id="icon" xmlns="http://www.w3.org/2000/svg" xmlns:xlink="http://www.w3.org/1999/xlink" x="0px" y="0px"
	 viewBox="0 0 65 65" style="enable-background:new 0 0 65 65;" xml:space="preserve">
<style type="text/css">
	.st0{fill:#FFFFFF;}
</style>
<g>
	<path class="st0" d="M13.7,52.1c0.2,0.1,0.3,0.1,0.5,0.1c0.3,0,0.5-0.1,0.7-0.3l22.2-18.5c0.3-0.2,0.4-0.5,0.4-0.9
		c0-0.3-0.2-0.7-0.4-0.9L15,13.1c-0.3-0.3-0.8-0.3-1.2-0.2c-0.4,0.2-0.7,0.6-0.7,1v37C13.1,51.5,13.3,51.9,13.7,52.1z M15.4,16.5
		l19.2,16l-19.2,16V16.5z"/>
	<path class="st0" d="M29.3,13.1c-0.3-0.3-0.8-0.3-1.2-0.2c-0.4,0.2-0.7,0.6-0.7,1v5.7c0,0.6,0.5,1.2,1.2,1.2c0.6,0,1.2-0.5,1.2-1.2
		v-3.3l19.2,16l-19.2,16v-3.3c0-0.6-0.5-1.2-1.2-1.2c-0.6,0-1.2,0.5-1.2,1.2V51c0,0.4,0.3,0.9,0.7,1c0.2,0.1,0.3,0.1,0.5,0.1
		c0.3,0,0.5-0.1,0.7-0.3l22.2-18.5c0.3-0.2,0.4-0.5,0.4-0.9c0-0.3-0.2-0.7-0.4-0.9L29.3,13.1z"/>
</g>
</svg>
